<?xml version="1.0" encoding="utf-8"?>
<!-- Generator: Adobe Illustrator 25.4.1, SVG Export Plug-In . SVG Version: 6.00 Build 0)  -->
<svg version="1.1" id="Layer_1" xmlns="http://www.w3.org/2000/svg" xmlns:xlink="http://www.w3.org/1999/xlink" x="0px" y="0px"
	 viewBox="0 0 124.5 32.7" style="enable-background:new 0 0 124.5 32.7;" xml:space="preserve">
<style type="text/css">
	.st0{fill:#818181;}
	.st1{font-family:'AdobeClean-ExtraBold';}
	.st2{font-size:14px;}
</style>
<g id="Layer_2_00000069364070407949742020000011730383232354319003_">
	<g id="Layer_1-2">
		<path class="st0" d="M30.3,32c0.2,0.1,0.3,0.1,0.3,0.3c0,0.1-0.1,0.2-0.1,0.3l-0.6,0.2c0-0.1,0-0.2,0-0.2
			c-0.1-0.1-0.1-0.1-0.2-0.2l-0.4,0.2l0.1,0.2c-0.3,0-0.6,0-1,0c0.2-0.2,0.4-0.1,0.7-0.1l-0.3-0.3c-0.1,0-0.2,0.1-0.2,0.1
			c-0.1,0-0.2,0-0.3-0.1l-0.1,0.3c-0.1-0.1-0.2-0.2-0.4-0.1v0.3h-2.2c-0.1-0.1-0.1-0.2-0.2-0.2s-0.2,0-0.3,0c0,0.2,0,0.2,0.2,0.2
			C25.1,33,25.1,33,24.7,33c-0.2,0-0.4,0-0.7,0c-0.2,0-0.4,0-0.6,0l-0.1-0.4c-0.1,0.1-0.2,0.3-0.1,0.4l0,0c-0.6,0-1.1,0-1.7,0
			c-0.2,0-0.3,0-0.5-0.1s-0.5-0.1-0.7-0.2l-0.1,0.1c0.1,0,0.3,0.1,0.4,0.2H20h-3.5c-1.2,0-2.4,0-3.6,0c-1.4,0-2.8-0.1-4.2-0.4
			c-2.4-0.4-4.6-1.5-6.3-3.2c-0.8-0.7-1.4-1.6-1.8-2.5C0.3,25.5,0,24.3,0,23.1c0-2.4,0-4.8,0-7.2c0-1.7,0-3.5,0-5.2
			c0-0.4,0.1-0.7,0.3-1.1C0.4,9.4,0.4,9,0.4,8.7H0.1V8.6c0.1-1.6,0.8-3,1.8-4.3C2,4.5,2,4.7,1.9,4.9C1.8,4.9,1.8,5,1.9,5
			s0.2,0,0.2-0.1c0.1-0.2,0.2-0.4,0.2-0.6c0-0.1,0-0.2-0.1-0.3C3.5,2.6,5,1.6,6.6,1c0,0.1,0,0.2,0,0.3c0,0.1,0.1,0.1,0.2,0.2
			C6.9,1.5,7,1.4,7,1.4c0-0.1,0-0.2,0-0.3s0.1-0.2,0.3-0.2l0.1,0.4h0.1c0-0.1,0-0.2,0.1-0.3c0.1-0.2,0.3-0.4,0.6-0.4
			c0.2,0,0.3-0.1,0.5-0.1c0,0.1,0.1,0.2,0.1,0.3s0.1,0.3-0.2,0.4c-0.2,0-0.1,0.2-0.1,0.3c0.1-0.1,0.2-0.2,0.3-0.2
			C8.9,1.2,9,1.1,9.1,0.9s0.2-0.4,0.3-0.5c0.7-0.2,1.5-0.3,2.2-0.3l0,0c0,0.1-0.1,0.2,0.1,0.2c0.2,0,0.1-0.1,0.1-0.2V0h4
			c0.2,0.2,0,0.4,0.3,0.5V0c0.1,0,0.2,0,0.3,0c0.6,0,1.3,0,1.9,0c0.2,0,0.4,0,0.4,0.2C19.1,0.1,19.5,0,19.8,0c14,0,28.1,0,42.1,0
			c1.3,0,2.6,0,4,0c0.3,0,0.6,0,0.9,0c0,0.1,0.1,0.1,0.2,0.2c0,0,0.1,0,0.2,0c0.1,0.1,0,0.3,0.4,0.2c-0.1-0.1-0.2-0.1-0.2-0.2
			s0.1-0.1,0.1-0.3c0.5,0,0.9,0,1.4,0c0.1,0,0.1,0,0.2,0.1c0.2,0,0.4-0.1,0.5-0.1c0.2,0,0.4,0,0.6,0s0.3,0,0.5,0.1
			c0.1,0.1,0.3,0.1,0.4,0.1V0l-0.2-0.1h0.3l0.1,0.2L71.5,0v0.2l-0.3,0.1l0.4,0.1c0,0.3-0.4,0.5-0.2,0.8C71.7,1.4,71.6,1,72,1
			l-0.1-0.2h0.7c0,0,0-0.1,0-0.2c-0.1-0.1-0.2-0.1-0.3,0c-0.1,0.1-0.2,0.1-0.4,0l0.2-0.5c0.2-0.1,0.4,0,0.5,0.2L72.7,0l0.1,0.1h0.1
			v0.1C73,0.3,73,0.5,73,0.6s0,0.2,0,0.4c0.3,0.2,0.5,0,0.7-0.1l-0.4-0.4c0.2-0.2,0.5-0.1,0.7-0.1s0.4-0.1,0.6-0.1
			c0.1,0.2,0.1,0.4,0.2,0.6C74.8,1,74.9,1,75,1c0-0.1,0-0.2,0.1-0.4c0.1-0.1,0.2-0.2,0.3-0.3l0.2,0.2c0.1,0,0.2-0.1,0.1-0.3h0.4
			C76,0.3,76,0.5,75.9,0.6c0,0.1,0,0.1-0.1,0.2c0,0.1,0,0.1-0.1,0.1c0,0,0,0-0.1,0c-0.2-0.1-0.2,0-0.4,0L75.3,1l-0.2,0.2L74.9,1v0.2
			h-0.1l-0.2-0.4L74.3,1c0,0.2,0,0.4-0.1,0.6c-0.1-0.1-0.1-0.1-0.3,0h0.3c-0.1,0.1-0.2,0.1-0.1,0.2c0,0.1,0.1,0.1,0.1,0.2l0,0h-0.4
			c0,0,0,0,0-0.1c0,0,0,0,0-0.1h-0.1C73.6,2,73.6,2,73.2,2.2L73,2c-0.1,0.2-0.3,0.3-0.5,0.1c0,0-0.1,0-0.2,0s-0.2,0-0.2,0
			C71.8,2,71.8,2,71.7,2.2c-0.2,0-0.6,0.1-0.7-0.1l-0.5,0.1c0-0.2,0.2-0.3,0.3-0.4c0.1,0,0.2,0.1,0.3,0c0.2-0.1,0.3-0.1,0.5-0.1
			c0-0.1,0-0.2-0.3-0.2c-0.2,0-0.3,0-0.5,0L71,1.8l-0.2,0.1c-0.1-0.2-0.2-0.2-0.4-0.2c-0.1,0-0.2,0.1-0.3,0.1l0.1,0.4
			c-0.2,0-0.4,0-0.5,0c-0.6,0-1.1,0-1.7,0c-0.1,0-0.2,0-0.1-0.1c0.1,0,0.2,0,0.3,0C68.1,2,68.1,2,68,2s-0.2,0.1-0.1,0.1
			c-0.1-0.1-0.2-0.1-0.3,0c-0.3,0.1-0.7,0.1-1,0h-0.1c-0.1,0.1-0.3,0.1-0.5,0.1c-0.4,0-0.9,0-1.3,0L65,1.7v0.2l0.1-0.2l-0.6-0.2
			c-0.1,0.2-0.1,0.3-0.1,0.4c-0.1,0.2-0.1,0.2-0.4,0.2c-1.2,0-2.3,0-3.5,0H21.8l-0.1-0.6c-0.3,0.2-0.1,0.4-0.2,0.5h-8.4
			c0-0.2,0.1-0.4,0.1-0.6c0-0.1,0.1-0.3,0.1-0.4c0-0.2,0-0.2-0.3-0.3c-0.2,0-0.3,0.2-0.2,0.4c0,0.3,0,0.7,0,1c-0.1,0-0.2,0-0.4,0
			c-0.7,0-1.5,0-2.2,0.1c-0.3,0-0.6,0.1-0.8,0.2c-0.1,0-0.1,0-0.2,0L8.9,2C8.6,2,8.7,2.2,8.5,2.2c0,0.1,0.1,0.2,0.1,0.3
			S8.5,2.7,8.3,2.8C8,2.9,7.7,3,7.4,3.2L7.1,2.9c0,0.5-0.4,0.6-0.8,0.7C6.2,3.4,6.6,3.2,6.4,3C6,3,6.2,3.2,6.1,3.3
			C6,3.5,6,3.7,6.1,3.8L5.7,4.1L5.5,4L5.4,4.1c0,0.2-0.1,0.3-0.3,0.5C3.9,5.6,3,7,2.8,8.6c0,0.3,0,0.6,0,0.8c0,4.2,0,8.4,0,12.5
			c0,0.6,0,1.1,0,1.7c0.1,3,2,5.1,5.5,6.4c0.2,0.1,0.4,0.2,0.5,0.2c1,0.2,2.1,0.4,3.2,0.4c2.5,0,5,0,7.6,0c1,0,1.9,0,2.9,0
			c0.3,0,0.5,0,0.8,0c0.1,0.1,0.1,0.3,0.2,0.4s0.2,0.2,0.4,0.2c0.2-0.2-0.1-0.4-0.1-0.6h3.4L27,30.9l0.4-0.1
			c0.1,0.2-0.1,0.5,0.4,0.4c0-0.1,0.1-0.1,0.1-0.2c0.2-0.1,0.3-0.3,0.5-0.4c0,0,0,0,0.1,0c0,0.2-0.1,0.3,0.2,0.4l0.2-0.1v-0.4
			c0.4,0,0.9,0,1.3,0.1c0.1,0,0.1,0,0.2,0c0.2-0.1,0.4,0,0.6,0.1c0.1,0.1,0.2,0.1,0.3,0c0.2-0.1,0.4-0.1,0.6-0.1l-0.1,0.1
			c0,0.1,0.1,0.2,0.1,0.3c0,0.1,0.1,0.2,0.2,0.3L32,31.5c0-0.1-0.1-0.1-0.1-0.2c-0.1,0-0.1-0.1-0.2-0.1c-0.2,0.1-0.4,0.2-0.6,0.4
			c-0.1,0-0.1,0.1,0,0.2c0.3,0.1,0.3,0.2,0,0.3c0-0.1-0.1-0.2-0.1-0.3c-0.1-0.1-0.1-0.2-0.2-0.2l0.2-0.1l-0.4-0.3l-0.1,0.4L30,31.3
			c-0.1,0.2-0.1,0.4-0.2,0.5c0,0.1-0.1,0.1-0.2,0.2c0.1,0,0.2,0,0.3,0c0.1,0,0.2,0,0.2,0.1c0,0.2-0.1,0.3,0.2,0.4L30,32.1
			c0.1,0,0.1,0.1,0.2,0.1S30.3,32.2,30.3,32C30.4,32.1,30.3,32.1,30.3,32L30.3,32z M72,1.2l0.2,0.3V1.3c0.1,0.1,0.2,0.1,0.3,0
			c-0.1-0.1-0.1-0.1-0.2-0.2c0.1,0.1,0.2,0,0.3,0c-0.2-0.1-0.2,0-0.3,0.1L72,1.2L72,1.2z M28.5,31.8c0-0.1,0-0.1,0-0.2l-0.1-0.1
			l-0.1,0.1C28.3,31.7,28.4,31.8,28.5,31.8L28.5,31.8c0.1,0.2,0.2,0.3,0.3,0.4c0.1-0.1,0.2-0.2,0-0.3C28.8,31.9,28.6,31.8,28.5,31.8
			z M26.3,32.2l0.1-0.1c0-0.1-0.1-0.2-0.3-0.2L26.3,32.2c-0.3-0.1-0.2-0.3-0.3-0.4c-0.2,0.1-0.3,0.3-0.2,0.3
			c0.2,0.1,0.3,0.2,0.6,0.3L26.3,32.2z M69.8,1l-0.2,0.1l0.3,0.2L69.8,1c0.1-0.1,0.3,0,0.3-0.2s-0.2-0.2-0.3-0.2
			c-0.1-0.1-0.3,0-0.3,0.1c0.1,0.1,0.1,0.2,0.2,0.3C69.7,1,69.7,1,69.8,1L69.8,1z M15.3,1h0.2c-0.1-0.2-0.1-0.4-0.2-0.6
			c0-0.1-0.1-0.2-0.1-0.2c-0.1-0.1-0.2-0.1-0.3,0l0,0v0.1c0,0.2,0,0.4,0,0.6c0.1,0.2,0,0.4,0.2,0.5C15.4,1.3,15.2,1.2,15.3,1z
			 M29.1,30.9c0.2,0.2,0,0.5,0.3,0.8c-0.2,0.2-0.2,0.2,0,0.4c0-0.2,0.3-0.2,0.4-0.2c0-0.1-0.1-0.2-0.1-0.2
			C29.7,31.2,29.3,31.1,29.1,30.9z M2,11.5c0.3-0.4,0.4-0.7,0.2-0.9c-0.1,0-0.2,0.1-0.2,0.1C1.9,11,1.9,11.2,2,11.5z M68.4,0.1
			c-0.3,0.2-0.3,0.3-0.1,0.4c0.1,0.1,0.2,0,0.3-0.1C68.8,0.3,68.7,0.2,68.4,0.1z M21,32.2h0.1l0.4-0.2c0-0.2-0.2-0.2-0.4-0.2
			L21,32.2z M68.8,2.1c0.2-0.2-0.1-0.3-0.2-0.4l-0.3,0.1l0,0h0.3C68.5,2,68.5,2.1,68.8,2.1z M68.5,0.7c0.1,0.1,0.2,0.1,0.3,0.2
			c0.1,0,0.2,0,0.3-0.1V0.7c-0.1,0-0.1-0.1-0.2-0.1C68.8,0.6,68.6,0.7,68.5,0.7z M1.8,12L1.8,12c-0.2,0.1-0.2,0.2-0.3,0.4l0.1,0.1
			c0.1,0,0.2-0.1,0.2-0.1C1.9,12.3,1.9,12.1,1.8,12z M21.3,31c0.1,0.2,0.1,0.4,0.4,0.3C21.7,31.1,21.7,31.1,21.3,31L21.3,31z
			 M17.3,31.9c0-0.2-0.1-0.3-0.4-0.3C16.9,31.8,17.1,31.9,17.3,31.9L17.3,31.9z M16.6,1.4c0-0.1,0-0.1,0-0.2l-0.1-0.1
			c-0.1,0-0.1,0.1-0.1,0.2S16.4,1.5,16.6,1.4z M24.2,31.3c0,0.1,0.1,0.2,0.3,0.2c0.1,0,0.1-0.1,0.1-0.2
			C24.5,31.2,24.3,31.2,24.2,31.3L24.2,31.3z M73.4,2V1.7l-0.5,0.2L73.4,2z M73.9,1c0.2-0.2,0.1-0.3-0.2-0.4L73.9,1z M69.2,1.3
			L69.2,1.3c0-0.1,0-0.2-0.1-0.2s-0.1,0-0.2,0v0.1C69.1,1.2,69.1,1.3,69.2,1.3L69.2,1.3z M7.1,2.1C7.4,2,7.4,1.9,7.2,1.7
			C7.1,1.8,7,1.9,7.1,2.1C7.1,2,7.1,2.1,7.1,2.1z M17.4,1.8l-0.2-0.1l-0.1,0.1l0.1,0.1L17.4,1.8z M14.4,31.6L14.4,31.6l-0.3-0.3
			C14.2,31.4,14.2,31.6,14.4,31.6L14.4,31.6z M23.5,31.7L23.5,31.7c0.1,0.1,0.1,0.1,0.2,0.2c0.1,0.1,0.2,0.1,0.2-0.1L23.5,31.7z
			 M27.1,31.3h0.1c0.1-0.1,0.1-0.2-0.1-0.3V31.3z M1.3,9.1H1.2c0,0.1-0.1,0.2-0.1,0.2l0.1,0.1c0,0,0.1,0,0.1-0.1S1.3,9.2,1.3,9.1z
			 M69.9,1.8c-0.2,0-0.3-0.1-0.4,0C69.7,2,69.8,2,69.9,1.8z M20.7,1.1C20.7,1,20.6,1,20.6,1c-0.1,0-0.1,0.1-0.1,0.1l0.1,0.1
			C20.6,1.1,20.7,1.1,20.7,1.1z M26.2,31h-0.4l0.2,0.3L26.2,31z M70.6,0.3l-0.3,0.1C70.5,0.5,70.5,0.5,70.6,0.3z M11.7,1L11.7,1
			c-0.1,0.1-0.2,0.2,0,0.3V1z M31.4,31L31.4,31c0.1,0,0.2,0,0.3,0v-0.1c-0.1,0-0.1,0-0.2,0C31.5,30.9,31.4,31,31.4,31z M7.6,1.7
			L7.6,1.7c0.2-0.1,0.2-0.1,0-0.2V1.7z M24.8,32.6h0.1l-0.1-0.3C24.6,32.5,24.7,32.6,24.8,32.6z M69,1.7L69,1.7
			c0.1,0.1,0.2,0.2,0.4,0.1L69,1.7z M72.6,1.7L72.6,1.7l-0.2-0.2C72.4,1.7,72.5,1.7,72.6,1.7L72.6,1.7z M25.6,31.6
			c0-0.2,0-0.2-0.3-0.2L25.6,31.6z M70.6,1.4c-0.2,0-0.3,0-0.3,0.1C70.4,1.5,70.6,1.5,70.6,1.4L70.6,1.4z M69,1.4L69,1.4h-0.3
			l0.1,0.1L69,1.4z M73.3,1.2l0.2,0.2l0.1-0.1C73.5,1.2,73.4,1.2,73.3,1.2L73.3,1.2z M19.3,30.8c-0.1,0-0.1-0.1-0.2-0.1L19,30.8
			l0.1,0.1C19.2,30.9,19.2,30.8,19.3,30.8z M26.7,30.6c-0.2,0-0.2,0.1-0.1,0.2C26.7,30.8,26.7,30.7,26.7,30.6z M9.9,2.2l0.2-0.1
			C9.9,2,9.9,2,9.9,2.2z M29.5,31c0.2,0.1,0.2,0.1,0.3-0.1L29.5,31z M73.5,1.7c0.1,0.1,0.2,0.1,0.3,0H73.5z M69.5,1.4
			c0,0.2,0,0.2,0.2,0.2L69.5,1.4z M20,31.7c-0.1,0.1,0,0.2,0.2,0.2L20,31.7z M30.9,31C30.9,31,31,30.9,30.9,31c0.1-0.1,0-0.2,0-0.2
			l-0.1,0.1C30.8,30.9,30.8,31,30.9,31z M29.1,31.7c0.1,0,0.1-0.1,0-0.2H29C28.9,31.6,29,31.6,29.1,31.7L29.1,31.7z M19.5,31.7
			L19.5,31.7l-0.2-0.2h-0.1L19.5,31.7z M67.3,1.2L67.3,1.2c0-0.1-0.1-0.2-0.2-0.1L67.3,1.2z M28.5,31.2c-0.1,0-0.1-0.1-0.1,0
			s-0.1,0.1-0.1,0.1l0.1,0.1C28.4,31.3,28.5,31.3,28.5,31.2z M68.3,1.7L68.3,1.7c0.1,0,0.1-0.1,0.1-0.1l-0.1-0.1l0,0V1.7z M70.6,1.1
			L70.6,1.1L70.4,1l0,0L70.6,1.1z M72.7,0.4C72.7,0.5,72.7,0.5,72.7,0.4c0,0.1,0,0.1,0.1,0.2c0,0,0.1,0,0.1-0.1S72.8,0.5,72.7,0.4z
			 M21.1,32.5c0.1,0,0.2,0,0.2-0.2L21.1,32.5z M6.8,2.4c-0.1,0-0.1,0-0.2-0.1H6.5c0,0,0,0.1,0.1,0.1C6.7,2.4,6.7,2.4,6.8,2.4z
			 M6.4,30.7C6.4,30.7,6.4,30.6,6.4,30.7c0.1-0.1,0-0.1,0-0.1H6.3C6.3,30.6,6.3,30.7,6.4,30.7z M26.4,32.5l-0.1,0.1l0.1,0.1
			C26.4,32.6,26.4,32.6,26.4,32.5L26.4,32.5z M18.3,31.1L18.3,31.1l-0.1-0.2h-0.1L18.3,31.1z M66.5,1.8L66.5,1.8
			c0,0.1,0,0.1,0.1,0.1l0,0C66.6,1.8,66.6,1.8,66.5,1.8z M31.2,30.9C31.1,30.9,31.1,31,31.2,30.9c-0.1,0.1,0,0.1,0,0.1
			S31.2,31,31.2,30.9C31.2,31,31.2,30.9,31.2,30.9z M19.6,31.2L19.6,31.2L19.5,31l0,0L19.6,31.2z M30.6,31.1h0.1V31h-0.1V31.1z
			 M26.4,31.3h0.1v-0.2h-0.1V31.3z M25.5,32.1C25.6,32.1,25.6,32.1,25.5,32.1c0.1-0.1,0.1-0.2,0-0.2h-0.1
			C25.5,32,25.5,32.1,25.5,32.1L25.5,32.1z M19.9,31.3L19.9,31.3v0.2H20L19.9,31.3z M73.7,1.3C73.8,1.3,73.8,1.4,73.7,1.3
			c0.1,0,0.2,0,0.2-0.1h-0.1C73.8,1.3,73.8,1.3,73.7,1.3z M3.3,4.5C3.3,4.5,3.2,4.5,3.3,4.5C3.2,4.5,3.2,4.5,3.3,4.5
			C3.2,4.5,3.2,4.6,3.3,4.5L3.3,4.5z M68.4,1.1C68.4,1.1,68.4,1.2,68.4,1.1C68.4,1.2,68.4,1.2,68.4,1.1C68.5,1.2,68.5,1.2,68.4,1.1
			C68.5,1.2,68.5,1.1,68.4,1.1z M68,1.2C68,1.2,68.1,1.2,68,1.2c0.1-0.1,0-0.1,0-0.1S68,1.1,68,1.2C67.9,1.2,68,1.2,68,1.2L68,1.2z
			 M23,1.6L23,1.6c0.1,0,0.1,0,0.1,0H23C23.1,1.5,23,1.5,23,1.6z M65.4,0.9L65.4,0.9h0.2V0.8C65.5,0.9,65.4,0.9,65.4,0.9z
			 M27.4,32.2C27.4,32.1,27.5,32.1,27.4,32.2c0.1-0.1,0.1-0.1,0.1-0.1L27.4,32.2C27.3,32.1,27.4,32.1,27.4,32.2z M71,0.8L71,0.8
			L71,0.8C70.9,0.9,70.9,0.9,71,0.8C71,0.9,71,0.9,71,0.8z M24.8,32.2L24.8,32.2c-0.1-0.1-0.1-0.1-0.2,0v0.1
			C24.7,32.2,24.8,32.2,24.8,32.2z M22.7,31.2L22.7,31.2v0.1h0.1L22.7,31.2z M70.2,0.7C70.2,0.6,70.2,0.6,70.2,0.7
			c0.1-0.1,0-0.1,0-0.1C70.1,0.6,70.1,0.6,70.2,0.7C70.1,0.6,70.1,0.6,70.2,0.7z M66.7,1.7c0.1-0.1,0.1-0.1,0.1-0.1h-0.1h-0.1
			C66.7,1.6,66.7,1.7,66.7,1.7z M8.3,2.7C8.3,2.7,8.3,2.6,8.3,2.7C8.3,2.6,8.3,2.6,8.3,2.7C8.2,2.6,8.2,2.6,8.3,2.7
			C8.2,2.7,8.2,2.7,8.3,2.7z M69.8,0.3C69.8,0.2,69.8,0.2,69.8,0.3C69.8,0.2,69.8,0.2,69.8,0.3C69.7,0.2,69.7,0.2,69.8,0.3
			C69.7,0.2,69.7,0.2,69.8,0.3z"/>
		<path class="st0" d="M124.2,14.6c0.2,0.1,0.2,0.3,0.2,0.4c0,0.1,0,0.3,0,0.4l-0.4-0.1v0.1c0.1,0.1,0.1,0.1,0.2,0.2
			c0.2,0.1,0.2,0.2,0.2,0.4c0,0.6,0,1.2,0,1.8c0,0.2,0,0.4,0,0.6v2.1h-0.3l0.1,0.2l0.2-0.1v1.6l-0.4,0.1c0.1,0.1,0.2,0.1,0.3,0.2
			c0.1,0.1,0.2,0.1,0.1,0.3c0,0,0,0.1,0,0.2c0,0.2,0,0.5,0,0.7l-0.4,0.1l0.4,0.2c0,0.5-0.1,0.9-0.3,1.4c-0.1,0.2-0.1,0.4-0.2,0.6
			c-0.2,0.7-0.5,1.4-0.9,1.9c-0.7,1-1.6,1.9-2.7,2.6c-0.4,0.2-0.8,0.5-1.2,0.7L119,31c-0.1,0.4-0.4,0.5-0.8,0.6c0,0-0.1,0-0.1-0.1
			s0.2-0.2,0.1-0.4c-0.1,0.2-0.2,0.3-0.1,0.4c-0.5,0.4-1.2,0.6-1.8,0.7c-0.9,0.2-1.9,0.3-2.8,0.5c-0.5,0.1-0.9,0.1-1.4,0.1
			c-2.2,0-4.5,0-6.7,0c-1.4,0-2.8,0-4.2,0c-0.1,0-0.2,0-0.3,0v-0.1c0.1,0,0.2-0.1,0.4-0.2c0.1-0.1,0.1-0.2,0-0.3s-0.2-0.1-0.3,0
			c-0.1,0.1-0.2,0.2-0.1,0.3c0,0.1,0.1,0.1,0.2,0.2c-0.3,0.1-0.5,0.1-0.8,0.1c-0.1-0.1,0.2-0.3-0.1-0.4c-0.1,0-0.1-0.1-0.3-0.1
			c0.2,0.2,0.1,0.3,0,0.5c-0.2,0-0.5,0-0.7,0c-2.3,0-4.6,0-6.9,0c-1.6,0-3.2,0-4.8,0H54.2c-2,0-4.1,0-6.1,0c-0.2,0-0.4,0-0.6-0.1
			c-0.1,0-0.2-0.1-0.3,0c-0.2,0.1-0.5,0.2-0.8,0.1c-0.4,0-0.9,0-1.3,0c-1.2,0-2.5,0-3.7,0c-0.1,0-0.1,0-0.2,0v-0.2
			c-0.1-0.1-0.3-0.1-0.5,0L41,32l0.2,0.1c0-0.2-0.2-0.4,0-0.6c-0.3,0-0.4,0-0.5,0.2c-0.1,0.3-0.2,0.6-0.3,0.8c0,0,0,0.1-0.1,0.1
			c-0.3-0.1-0.6-0.2-0.9,0c0-0.2,0.1-0.3,0.3-0.3c0.1,0,0.3,0,0.4,0c0.3,0,0.3,0,0.3-0.3h-0.3v-0.1l0,0c0.1-0.1,0.2-0.2,0.1-0.3
			c-0.1,0-0.1,0.1-0.2,0.1c0,0-0.1,0.1-0.1,0.2l0,0c-0.1,0.1-0.2,0.2-0.4,0.2c-0.1,0-0.1,0.1-0.2,0.1c-0.1,0.1-0.2,0.3-0.3,0.4h-0.4
			l-0.1-0.2l-0.2,0.2l-0.2-0.1c-0.2,0.1-0.4,0.2-0.6,0c-0.2,0.1-0.4,0.1-0.6,0.1c-0.1-0.2,0.1-0.3,0.2-0.5c-0.2,0-0.2,0.1-0.3,0.2
			l0,0l0.1-0.3h-0.4c-0.2-0.1-0.1-0.3,0-0.5c0-0.1,0.2-0.3,0.1-0.4c-0.1-0.2,0-0.3,0.1-0.4c0.1,0,0.2,0.1,0.3,0.1s0.1-0.1,0.2-0.2
			c0.2-0.1,0.4-0.1,0.6,0l-0.3,0.1l0.2,0.3c-0.2,0-0.2,0-0.2-0.1s-0.2-0.1-0.3-0.1l0,0c-0.1,0-0.1,0.1-0.1,0.2
			c0.1,0.2-0.1,0.3-0.2,0.5l0.1-0.3c-0.2,0.1-0.3,0.3-0.3,0.5l0.3-0.1l0.2,0.1l0.2-0.3c0.1,0.1,0.2,0.2,0.1,0.3
			c-0.1,0.1-0.1,0.2-0.1,0.3H38c0.1-0.1,0.2-0.2,0.3-0.3c0-0.1,0-0.2,0-0.2l0.1-0.1c0.1,0.4-0.1,0.7-0.5,0.8l0.1,0.3h0.4v-0.4
			l0.3,0.1c0.1-0.1,0.2-0.1,0.3-0.2c0,0.1,0.1,0.2,0.3,0.2l0.1-0.1L38.9,32c0-0.1,0-0.1,0.1-0.1c0.2,0,0.4-0.1,0.5-0.2
			c-0.2,0-0.3-0.3-0.6-0.1l0.5-1l0.7,0.1v-0.1c0.4,0,0.7-0.1,1.1,0v0.5c0.2-0.1,0.3-0.2,0.5-0.3c0,0.1,0,0.1,0.2,0.1l-0.2-0.1
			c0.1-0.2,0.3-0.1,0.5-0.1v0.4c0.4-0.1,0.3-0.4,0.4-0.5c0.4,0,0.7,0,1.1,0c0.2,0,0.4,0,0.7,0.1h0.1c0.3-0.1,0.7-0.1,1-0.1
			c0.4,0,0.7,0,1.1,0c7.8,0,15.6,0,23.3,0c5.6,0,11.3,0,16.9,0c0.2,0,0.5,0,0.7,0.2c0.1-0.1,0.3-0.2,0.4-0.2c1.9,0,3.9,0,5.8,0
			c0.1,0.1,0.2,0.2,0.3,0.2c0.1,0,0.2-0.1,0.3-0.2c0.8,0,1.6,0,2.4,0c0.4,0,0.8,0.1,1.2,0.1c0.1,0,0.2,0,0.3,0
			c0.2-0.1,0.5-0.1,0.7-0.1c1.1,0,2.2,0,3.3,0c0.3,0,0.7,0,1,0c0.2,0,0.4,0,0.6,0.2c0.1-0.2,0.3-0.2,0.5-0.2c1.1,0,2.3,0,3.4,0
			c0.1,0,0.3,0,0.4,0.1c0,0.1,0.2,0.1,0.3,0c0.1-0.1,0.2-0.1,0.3-0.1c0.7,0,1.3,0,2,0c1.2,0,2.5,0,3.7-0.2c2-0.3,3.8-1.2,5.3-2.5
			c0.6-0.6,1.1-1.2,1.4-2c0.4-0.8,0.6-1.7,0.5-2.5c0-0.3,0-0.6,0-0.8c0-0.1,0.1-0.2,0.1-0.3c-0.2,0-0.1-0.1-0.1-0.2c0-0.5,0-1,0-1.5
			c0-0.3,0.1-0.5,0.1-0.8c0-0.2,0-0.4-0.1-0.6c0-0.1,0-0.3,0.2-0.3l0,0c-0.2-0.1-0.2-0.1-0.2-0.3c0-0.4,0-0.8,0-1.2
			c0-0.1,0-0.3,0-0.4c0-0.2,0-0.4,0.2-0.5c0.1-0.1,0.1-0.1-0.1-0.2V16h0.2c0.1-0.2,0.1-0.4,0-0.5l-0.2,0.4c0-0.1,0-0.1,0-0.2
			c0-0.8,0-1.7,0-2.5c0-0.1,0.1-0.2,0.1-0.3s0.2-0.1,0.2-0.1h0.1c0-0.1,0-0.2,0-0.3s0-0.2,0.1-0.2c0.1-0.1,0.1-0.1,0.1-0.2
			c-0.1-0.1,0.1-0.2,0.2-0.3c0.3-0.3,0.5-0.7,0.5-1.1c0-0.2,0.1-0.4,0.2-0.6c0.1-0.2,0.2-0.4,0.4-0.5l0.1,0.4h0.1
			c0.1-0.2,0.3-0.5,0.4-0.7s0.2-0.2,0.4,0l-0.2,0.1l0,0h0.3c0,0.4,0,0.9-0.1,1.3v0.1c0,0.2,0,0.5,0,0.7c0,0.4-0.1,0.8-0.1,1.1v0.1
			c0.2,0.1,0.2,0.3,0.2,0.4c0.1,0.3,0,0.6-0.2,0.9c-0.1,0.1-0.1,0.2-0.1,0.4C124.1,14.6,124.2,14.6,124.2,14.6L124.2,14.6z M42,31.4
			l-0.1,0.2l0.3-0.1L42,31.4v-0.2l-0.3,0.2l0,0C41.9,31.4,41.9,31.4,42,31.4z M38.9,32.4l-0.2-0.1C38.7,32.4,38.8,32.4,38.9,32.4
			v0.2c0.2-0.1,0.3-0.2,0.2-0.3C39.1,32.4,39,32.4,38.9,32.4L38.9,32.4z M39.6,30.9c0.2,0.3-0.3,0.3-0.2,0.4h0.5v0.3
			c0.2-0.2,0.3-0.4,0.5-0.5c0.1,0,0.2,0.1,0.3,0.1s0.2-0.1,0.2-0.3c-0.2-0.1-0.3,0.1-0.5,0S40.2,31.1,40,31l0.1-0.2L39.6,30.9z
			 M98.9,32.3c-0.1-0.1-0.3-0.2-0.4-0.3c-0.2-0.1-0.4-0.1-0.4,0c0,0.1,0,0.2,0.1,0.3s0.2,0.1,0.3,0.1C98.6,32.3,98.7,32.3,98.9,32.3
			C98.8,32.3,98.9,32.3,98.9,32.3L98.9,32.3z M123.4,10.1c-0.1,0.1-0.1,0.1-0.1,0.2c0,0.1,0,0.2,0.1,0.4c0,0.1-0.2,0.2-0.2,0.3
			c0,0.2-0.1,0.3-0.3,0.4c0.4,0,0.4-0.3,0.6-0.4c0-0.1-0.1-0.2-0.1-0.3C123.5,10.5,123.5,10.3,123.4,10.1z M123.8,16.2
			c0.3,0.1,0.1,0.3,0.2,0.4c0.1,0,0.2,0,0.2-0.1c-0.1-0.1,0-0.3,0.1-0.4c0-0.1,0-0.1,0-0.2C124,16,123.8,16.1,123.8,16.2L123.8,16.2
			z M124.3,21.6c-0.2,0.2-0.6,0.1-0.6,0.3l0.5,0.1L124.3,21.6z M124,9.7L124,9.7c-0.1,0.1-0.1,0.2-0.1,0.2c0.1,0.1,0.2,0.2,0.3,0.3
			c0.1,0,0.1,0,0.2,0v-0.1C124.2,10,124.1,9.8,124,9.7L124,9.7z M95.9,32c0.1,0,0.2-0.1,0.2-0.2l0,0c0-0.1,0-0.2-0.2-0.2
			c-0.1,0-0.2,0.1-0.3,0.2C95.6,31.9,95.7,32,95.9,32z M75.2,31.4c0.1-0.2,0.1-0.4,0-0.6C75,31,75,31.1,75.2,31.4z M101.8,31
			c-0.1-0.1-0.2-0.1-0.3-0.1c-0.1,0-0.3,0.1-0.3,0.2s0.1,0.1,0.2,0.1C101.6,31.1,101.7,31,101.8,31z M98.7,30.9
			c0.1,0,0.2,0.1,0.2,0.1c0.1,0,0.2-0.1,0.2-0.1c0-0.1-0.1-0.1-0.2-0.1C98.8,30.7,98.7,30.7,98.7,30.9z M122.3,18.9
			c0.2-0.2,0.2-0.4,0.2-0.6C122.3,18.4,122.2,18.6,122.3,18.9z M122.9,12c0.4-0.1,0.5-0.2,0.3-0.4L122.9,12z M123.8,12L123.8,12
			c0,0.2,0.1,0.4,0.4,0.4c0-0.1,0-0.1,0-0.1C124.1,12.2,123.9,12.1,123.8,12z M100.6,30.6c-0.1,0.1-0.1,0.1-0.1,0.2l0.1,0.1
			c0.1,0,0.2,0,0.2-0.1C100.8,30.7,100.7,30.7,100.6,30.6z M123.8,13.8l0.1,0.5C124,14,124,14,123.8,13.8z M122.9,13.5L122.9,13.5
			l0.5,0.3C123.3,13.6,123,13.6,122.9,13.5L122.9,13.5z M124,18.4l0.3-0.1c-0.1-0.1-0.1-0.1-0.2-0.2H124L124,18.4z M122.6,19.2
			c0.2,0,0.4,0,0.6-0.1C123,19,122.8,19.1,122.6,19.2z M100.1,31.8c0.1,0.2,0.1,0.2,0.3,0.1L100.1,31.8z M122.6,27.3
			c0.2-0.1,0.2-0.1,0.2-0.2V27h-0.1L122.6,27.3z M94.6,31.7c-0.1,0.1-0.1,0.1-0.1,0.2c0,0,0.1,0.1,0.2,0.1l0.1-0.1
			C94.7,31.8,94.7,31.8,94.6,31.7z M122.5,12.4c0.2-0.1,0.1-0.2,0-0.4C122.2,12.2,122.5,12.3,122.5,12.4z M123.1,21.6L123.1,21.6
			l0.3-0.4h-0.1L123.1,21.6z M122.2,19.1c-0.2,0-0.2,0.1-0.2,0.4C122.2,19.5,122.1,19.3,122.2,19.1z M122.2,24.8L122.2,24.8
			l-0.2,0.4h0.1L122.2,24.8z M98,31.3c-0.1,0-0.1-0.1-0.2-0.1c0,0-0.1,0-0.1,0.1l0.1,0.1L98,31.3z M122.2,21.3
			c-0.2,0-0.2,0.1-0.2,0.2h0.1C122.3,21.5,122.3,21.4,122.2,21.3L122.2,21.3z M104.8,31.1c0.1-0.1,0.1-0.1,0.1-0.1l-0.1-0.1
			l-0.1,0.1C104.7,31,104.8,31,104.8,31.1L104.8,31.1z M122.5,14.3c0.1-0.2,0.1-0.2,0-0.3V14.3z M124.1,24.5h-0.3
			C124,24.6,124.1,24.6,124.1,24.5L124.1,24.5z M113.3,32.5c-0.1,0-0.1-0.1-0.2-0.1l-0.1,0.1l0.1,0.1L113.3,32.5z M44.1,31.8
			L44.1,31.8l0.3-0.2h-0.1L44.1,31.8z M122,13.6L122,13.6l0.1-0.3H122V13.6z M42.3,31.8V32h0.1l0.2-0.2H42.3z M92.3,30.9l-0.2-0.1
			L92,30.9l0.1,0.1C92.2,31,92.2,30.9,92.3,30.9L92.3,30.9z M41.8,31.9c-0.1,0.1-0.2,0.1-0.2,0.2C41.8,32.1,41.8,32,41.8,31.9
			L41.8,31.9z M122.8,14.7c0.1-0.2,0.1-0.2,0-0.3V14.7z M123.6,23.9L123.6,23.9l0.2,0.1v-0.1C123.7,23.9,123.7,23.9,123.6,23.9
			L123.6,23.9z M121.8,14.1L121.8,14.1l0.1-0.3h-0.1V14.1z M102,32.5L102,32.5h-0.2C101.8,32.5,101.8,32.6,102,32.5L102,32.5z
			 M102.4,30.8l-0.3,0.1C102.4,31,102.4,30.9,102.4,30.8z M93.9,32.4c0,0-0.1,0-0.2,0c0,0-0.1,0-0.1,0.1l0.1,0.1
			C93.8,32.5,93.8,32.5,93.9,32.4z M120.3,27.5L120.3,27.5l-0.1,0.2h0.1V27.5z M123.9,20.5c-0.1,0-0.1-0.1-0.1-0.1h-0.1L123.9,20.5
			C123.8,20.6,123.8,20.5,123.9,20.5z M46.9,31.5c0.2-0.1,0.2-0.1,0.2-0.2L46.9,31.5z M44.4,32.2L44.4,32.2c-0.2,0-0.2,0-0.2,0.1
			L44.4,32.2z M123.6,11.2L123.6,11.2v0.1h0.1L123.6,11.2z M85.2,31.1L85.2,31.1c-0.1-0.1-0.1,0-0.2,0H85.2L85.2,31.1z M43.9,32.5
			c0.1,0.1,0.2,0.2,0.3,0H43.9z M101.7,31.4L101.7,31.4l0.1-0.2h-0.1C101.7,31.3,101.7,31.4,101.7,31.4z M93.3,31.8
			C93.3,31.8,93.2,31.8,93.3,31.8c-0.1,0.1-0.1,0.2,0,0.2c0,0,0.1,0,0.1-0.1L93.3,31.8z M37.1,31.9L37.1,31.9l0.2,0.2
			C37.3,31.9,37.1,31.9,37.1,31.9L37.1,31.9z M101.4,31.7l0.1-0.1l-0.1-0.1C101.3,31.5,101.3,31.6,101.4,31.7
			C101.3,31.6,101.3,31.6,101.4,31.7L101.4,31.7z M120.5,28c-0.2,0.1-0.2,0.1-0.1,0.3L120.5,28z M123.4,15.2c-0.2,0-0.3,0.1-0.2,0.2
			L123.4,15.2z M123.9,23.6L123.9,23.6h0.2v-0.1L123.9,23.6z M123.8,23.2l-0.1-0.1h-0.1C123.6,23.1,123.7,23.1,123.8,23.2
			C123.7,23.2,123.7,23.2,123.8,23.2L123.8,23.2z M102.7,31C102.6,31,102.6,31,102.7,31c0,0.1,0,0.1,0,0.1V31L102.7,31z M96.7,31.2
			C96.6,31.2,96.6,31.2,96.7,31.2c-0.1-0.1-0.2,0-0.2,0s0,0.1,0.1,0.1C96.6,31.3,96.6,31.3,96.7,31.2L96.7,31.2z M123,14.1
			c-0.1-0.2-0.1-0.2-0.2-0.1L123,14.1z M123.8,12.7L123.8,12.7C123.8,12.8,123.8,12.8,123.8,12.7L123.8,12.7L123.8,12.7z M44.5,31.9
			c-0.1,0-0.1,0-0.2,0h-0.1c0,0,0,0.1,0.1,0.1L44.5,31.9z M105.4,32.1L105.4,32.1L105.4,32.1C105.4,32.1,105.5,32.1,105.4,32.1
			L105.4,32.1z M92.5,32.4L92.5,32.4C92.4,32.4,92.4,32.4,92.5,32.4C92.4,32.5,92.4,32.5,92.5,32.4L92.5,32.4z M124,24.3
			C123.9,24.3,123.9,24.3,124,24.3C123.9,24.3,123.9,24.3,124,24.3C123.9,24.3,123.9,24.3,124,24.3C123.9,24.3,123.9,24.3,124,24.3
			L124,24.3z"/>
		<path class="st0" d="M87.3,2.1c0.2-0.3,0.6-0.4,0.7-0.8c0-0.1,0.2-0.2,0.3-0.2l-0.1-0.4l0.2-0.1c-0.1-0.2-0.1-0.3,0.2-0.4
			l-0.1-0.1c0.1,0,0.1-0.1,0.2-0.1C89,0,89.5,0,90,0c2.9,0,5.8,0,8.7,0h0.5l0.3,0.4c0.2-0.1,0.1-0.3,0.2-0.4c0.1,0,0.2,0,0.3,0
			c4.2,0,8.3,0,12.5,0c0.9,0,1.8,0.1,2.7,0.3c0.4,0.1,0.7,0.1,1,0.2c-0.1,0.2-0.2,0.4-0.3,0.6c0,0,0,0.1,0.1,0.1
			c0.2-0.1,0.4-0.3,0.5-0.6c0.2,0,0.2,0.1,0.2,0.2s0,0.2,0.1,0.2h0.2l-0.1,0.4c0.3-0.1,0.3-0.4,0.6-0.5c0,0.1,0,0.3-0.1,0.4
			c-0.1,0.2-0.1,0.3-0.3,0.4c-0.2,0.1,0,0.3-0.2,0.4c0,0.4,0,0.4-0.4,0.8c-0.6-0.2-1.3-0.3-1.9-0.5c-0.7-0.2-1.5-0.2-2.2-0.2
			c-2.3,0-4.6,0-6.9,0h-8.8c-1.5,0-2.9,0-4.4,0c-0.1,0-0.2,0-0.3,0c-0.1-0.3,0.2-0.6-0.2-0.9c-0.2,0.1-0.3,0.2-0.2,0.4
			c0,0.2,0,0.3,0,0.5c-0.5,0-0.9,0-1.3,0c-0.1,0-0.1-0.1-0.2-0.1c-0.1,0.1-0.3,0.2-0.5,0.1c-0.4,0-0.7,0-1.1,0c-0.2,0-0.3,0-0.5-0.1
			C87.9,2.2,87.7,2.2,87.3,2.1C87.3,2.2,87.3,2.1,87.3,2.1L87.3,2.1z M93.9,1.9L93.9,1.9L94,1.6l0.3-0.1c-0.1-0.2-0.2-0.4-0.2-0.7
			l0.4-0.1c-0.2-0.2-0.4-0.2-0.6-0.2s-0.2,0.1-0.2,0.3c0,0.1,0,0.3,0,0.4C93.8,1.5,93.7,1.8,93.9,1.9L93.9,1.9z M90.5,0.4
			c0,0.1-0.1,0.3-0.1,0.4l0.1,0.1h0.1C90.7,0.7,90.8,0.5,90.5,0.4z M95,0.5L95,0.5c-0.2,0.2-0.2,0.4-0.1,0.5c0,0,0.1,0,0.2,0L95,0.5
			z M95.3,2L95.3,2c0.1-0.1,0.1-0.1,0.1-0.2s0-0.1-0.1-0.2h-0.1c0,0.1,0,0.1,0,0.2C95.2,1.9,95.3,2,95.3,2z M116.3,1.4
			c-0.2,0.1-0.3,0.2-0.2,0.4C116.2,1.7,116.3,1.6,116.3,1.4L116.3,1.4z M99.3,1.7c0.1,0,0.1-0.1,0.1-0.1l-0.1-0.1l-0.1,0.1L99.3,1.7
			z M89.1,0.3c0.1,0.1,0.3,0.2,0.4,0.1C89.5,0.3,89.3,0.2,89.1,0.3z M90.5,1.5c-0.2,0.1-0.2,0.2,0,0.3V1.5z M102.1,0.2
			c-0.1-0.1-0.2-0.1-0.3,0v0.1C102,0.3,102,0.3,102.1,0.2z M89.7,1.6c0.1-0.1,0.1-0.1,0-0.2h-0.1C89.6,1.5,89.6,1.6,89.7,1.6z
			 M97.9,0.6c0-0.1-0.1-0.1-0.2-0.1l0,0v0.1H97.9z M91.4,1C91.3,1,91.3,1,91.4,1c-0.1,0-0.2,0-0.2,0.1l0.1,0.1
			C91.3,1.1,91.4,1,91.4,1z M88.7,1.5L88.7,1.5l-0.1-0.1l0,0C88.6,1.4,88.6,1.5,88.7,1.5z M91.5,0.2L91.5,0.2l-0.2-0.1v0.1H91.5z"/>
		<path class="st0" d="M122.3,7.8c0.1,0.2,0,0.5-0.2,0.6c-0.1,0.1-0.1,0.2-0.2,0.3c0.2-0.1,0.5-0.1,0.7-0.1v0.1
			c-0.3,0.1-0.5,0.4-0.6,0.7c0,0.2-0.2,0.4-0.4,0.5c-0.1-0.1,0-0.3,0.1-0.4c0.2-0.1,0.2-0.3,0.2-0.5l-0.3,0.1V9
			c0-0.8-0.2-1.5-0.5-2.2c-0.2-0.4-0.5-0.8-0.7-1.2c-0.2-0.2-0.2-0.4,0-0.6c0.1-0.1,0.1-0.1,0.2-0.2V4.6h0.2l0.4-1.6
			c0.1,0,0.2,0.1,0.3,0.2l-0.2,0.1l0.2,0.2l0.3-0.2c0.4,0.3,0.7,0.7,1,1.1c-0.1,0-0.3,0-0.2,0.2l0.2-0.2c0.2,0.1,0.1,0.3,0.2,0.4
			h0.1l0,0c-0.1,0.1,0.1,0.3-0.1,0.4c-0.1,0.1,0,0.3-0.1,0.4c0,0.1-0.1,0.2-0.2,0.2l-0.1,0.1c0,0.2,0,0.4,0.1,0.6
			c0,0,0.1,0.1,0.2,0.1c0.2,0,0.2,0,0.4,0.2l-0.5,0.3C122.7,7.6,122.7,7.6,122.3,7.8C122.3,7.7,122.3,7.7,122.3,7.8L122.3,7.8
			L122.3,7.8z M121.5,3.8L121.5,3.8c-0.2,0.2-0.3,0.5-0.1,0.7l0,0h0.1c-0.1,0.1-0.2,0.1-0.1,0.3c0.1,0.1,0,0.2-0.2,0.2
			c-0.1,0-0.1,0.1-0.1,0.1c0,0.1,0,0.2,0,0.3l0,0l0.1-0.2c0.2,0.1,0,0.3,0.3,0.4c0-0.2,0.1-0.3,0.1-0.5c0.1-0.2,0.1-0.3,0.2-0.5
			l-0.2-0.2l-0.2,0.1C121.6,4.3,121.6,4,121.5,3.8l0.2,0.4c0.1-0.1,0.1-0.2,0.1-0.3C121.8,3.8,121.7,3.7,121.5,3.8z M122,6.9
			c0.2-0.7,0.3-0.7,0-0.9c-0.1,0.3-0.2,0.5-0.2,0.7C121.8,6.8,121.9,6.9,122,6.9z M121.1,4.7l-0.3,0.5C121,5.2,121.2,5,121.1,4.7
			L121.1,4.7z M122.3,7.5l0.3-0.4C122.3,7.1,122.2,7.2,122.3,7.5L122.3,7.5z M121.3,6.9l0.3,0.1c0-0.2,0-0.2-0.2-0.2L121.3,6.9z
			 M122.2,7L122.2,7l0.1-0.3C122.1,6.8,122.1,6.9,122.2,7L122.2,7z M122.2,7.7c-0.2,0-0.2,0-0.2,0.2L122.2,7.7z M122.7,4.9
			c-0.2,0.1-0.2,0.1-0.2,0.2L122.7,4.9z M121.9,4.1c0.1-0.1,0.1-0.2,0-0.3V4.1z M121.7,8.3c0.2,0,0.2-0.1,0.2-0.1s0,0,0-0.1
			L121.7,8.3z M121.8,8L121.8,8c-0.1,0-0.1,0-0.1,0.1h0.1C121.7,8.1,121.8,8.1,121.8,8L121.8,8z"/>
		<path class="st0" d="M119.5,3.9l-0.1,0.7l-0.5-0.4C119,4.1,119,4,119,3.8c0-0.1,0.1-0.2-0.2-0.2c0.1-0.2,0.2-0.3,0.2-0.5
			c0,0,0-0.1-0.1-0.2h-0.1c0,0-0.1,0.1-0.1,0.2c0,0.1,0,0.3-0.1,0.4l0.1,0.1l-0.1,0.5c-0.2-0.1-0.4-0.3-0.6-0.4
			c-0.2-0.1-0.4-0.3-0.5-0.4c-0.2-0.1-0.4-0.2-0.7-0.3c0.2,0,0.2,0,0.2-0.1c0.1-0.2,0.1-0.3,0-0.5c0-0.1,0-0.1,0-0.2
			c0.2-0.3,0.4-0.6,0.6-1c0.1-0.1,0.1-0.1,0.2-0.2l0.1,0.4h0.1l0.2-0.3c0.4,0.2,0.9,0.4,1.3,0.6c0,0.1-0.1,0.1-0.2,0.2
			c-0.2,0.1-0.2,0.1,0,0.3c0,0,0,0,0,0.1c0,0,0,0,0.1,0c0.2-0.1,0-0.4,0.2-0.5c0.2,0.1,0.2,0.2,0.1,0.4s-0.1,0.4-0.2,0.6
			s-0.1,0.3-0.2,0.5c-0.1,0.1,0,0.2,0.1,0.2l0,0c-0.1,0.2-0.3,0.3-0.1,0.5L119.5,3.9z M117.7,1.8L117.7,1.8l0.2-0.2h-0.1L117.7,1.8z
			"/>
		<path class="st0" d="M83.1,2c0.2-0.2,0.3-0.5,0.2-0.8l0,0c0.2-0.1,0.4,0,0.6,0l0,0l-0.1,0.2c0.1,0,0.2,0.1,0.2,0.2
			s-0.1,0.1-0.1,0.2S83.8,1.9,83.8,2c0.6,0,0.6,0,0.8-0.2c0-0.2-0.1-0.2-0.4-0.1c0.2-0.2,0.6-0.4,0.3-0.7C84.8,0.9,85,1,85,1.1
			c-0.2,0.3,0,0.3,0,0.4c0.1-0.1,0.2-0.1,0.2-0.2s0-0.2-0.1-0.3s-0.1-0.2,0-0.3h0.2l-0.1-0.2l0.3-0.3l-0.5,0V0.1
			c0.2-0.1,0.3,0,0.4,0.1l0.2-0.1h0.1c0,0.1,0,0.2,0,0.4s0,0.3-0.2,0.4c-0.1,0-0.1,0.2-0.1,0.2c0.2,0.2,0.1,0.4,0.1,0.7
			c0,0.1,0,0.1-0.1,0.2c0,0.1,0,0.2,0.3,0.2c0.2-0.3,0-0.6,0.1-0.9s0.1-0.6,0.2-0.9c-0.1-0.1,0-0.1,0-0.1c-0.1,0.1-0.1,0.3-0.1,0.4
			S85.8,0.9,85.8,1c0.1,0.2,0.2,0.4,0.1,0.6c0,0,0,0,0,0.1C86,1.7,86,1.8,86,1.9l0.4-0.1c0-0.1-0.1-0.1-0.1-0.2
			c0.2-0.2,0.2-0.4,0.2-0.7c0.1-0.2,0.1-0.5,0.1-0.7C86.7,0.1,86.8,0,87,0c0.3,0,0.5,0,0.8,0l0.1,0.4c-0.5,0.2-0.4,0.6-0.4,1
			c-0.1,0-0.4,0-0.3,0.2c0,0-0.1,0.1-0.3,0.1c0.2,0,0.3,0.2,0.3,0.3l0,0c-0.2,0.1-0.3,0.2-0.5,0.1c-0.1,0-0.2-0.1-0.3-0.2l-0.1,0.2
			h-1.6V2c0.2,0,0.2,0,0.2-0.2c-0.1,0.1-0.3,0.1-0.2,0.2c-0.1,0-0.2,0-0.2,0c-0.1,0.1-0.2,0.1-0.3,0.1c-0.3,0-0.7,0-1,0
			c-0.2,0-0.2,0-0.3-0.2L83.1,2c0.1,0.1,0.1,0.1,0.3,0H83.1z M86.8,1.4c-0.1,0-0.2-0.1-0.2,0s0,0.1,0.1,0.1
			C86.9,1.5,86.9,1.4,86.8,1.4c0.2,0,0.2,0,0.2-0.2L86.8,1.4z M86.9,0.4L86.9,0.4V0.2h-0.1L86.9,0.4z"/>
		<path class="st0" d="M119.4,3.6l0.3-0.3c-0.2-0.3,0.1-0.4,0.2-0.7c0.1-0.1,0.2-0.3,0.3-0.4l0.3,0.2l-0.4,0.5h0.1l0.4-0.4
			c0.1,0,0.1,0.1,0.1,0.2c0,0.1-0.1,0.2-0.1,0.2c0,0.1,0,0.2,0.2,0.3l0.2-0.4c0.1,0.1,0,0.4-0.3,0.7c0,0.4,0,0.8-0.2,1.2V4.2h-0.1
			c-0.1,0.2-0.2,0.4-0.3,0.6c0-0.1-0.1-0.1-0.1-0.2c0.1-0.2,0.1-0.4,0.3-0.5c0.2-0.3,0.2-0.6,0.1-0.9c-0.2,0.1-0.3,0.3-0.3,0.5
			s0,0.4-0.1,0.6c0,0.1-0.1,0.3-0.2,0.4c-0.2-0.1-0.1-0.2-0.1-0.2c0.1-0.2,0.2-0.3,0.1-0.6c0-0.1,0-0.1,0.1-0.2l-0.2,0.1
			C119.6,3.8,119.6,3.6,119.4,3.6L119.4,3.6z"/>
		<path class="st0" d="M122.8,9.8c-0.1-0.3,0.2-0.5,0.4-0.7L123,9l-0.5,0.2c0.3-0.5,0.5-1,0.6-1.6c0.1,0.1,0.1,0.1,0.1,0.4
			c0,0.1-0.2,0.2,0.1,0.4c0-0.1,0.1-0.2,0.1-0.4c0-0.1,0-0.3,0-0.4c0.1-0.1,0.2-0.2,0.3-0.3c0,0.1,0,0.2-0.1,0.4
			c0,0.1-0.2,0.2,0,0.3l-0.1,0.2c-0.1,0.1-0.2,0.4,0,0.5l0.1,0.1c0.1,0.1,0,0.2-0.2,0.2v0.3c-0.1,0-0.2,0-0.3,0.1
			c-0.1,0.1-0.1,0.1-0.2,0.2C122.8,9.6,122.8,9.7,122.8,9.8L122.8,9.8z"/>
		<path class="st0" d="M122.7,9.8c-0.1,0.2-0.1,0.3-0.2,0.5c-0.1,0.1-0.2,0.3-0.1,0.5c0,0.1,0,0.2-0.1,0.3c-0.1,0.2-0.2,0.4-0.4,0.7
			c-0.1,0.1-0.1,0.2-0.2,0.2c-0.1-0.2-0.2-0.4,0-0.6c0.1-0.1,0.1-0.2,0.1-0.4l-0.2,0.1c-0.1-0.1,0-0.6,0.1-0.8
			c0.2,0,0.1,0.1,0.1,0.2c0,0.1,0,0.2,0,0.3c0.2,0,0.3-0.2,0.3-0.3s0.1-0.3,0.2-0.4C122.4,10,122.5,9.9,122.7,9.8
			C122.6,9.7,122.7,9.8,122.7,9.8L122.7,9.8z"/>
		<path class="st0" d="M34.4,31c-0.1,0-0.1,0.2-0.3,0.1L34,31.2c-0.1,0.2-0.2,0.3-0.2,0.5c0,0,0,0.1-0.1,0.1
			c-0.1-0.2-0.3-0.5,0.1-0.6c0-0.2-0.1-0.2-0.3-0.2c-0.1,0-0.2-0.1-0.4,0l0.2-0.3h0.3l0.1,0.2c0.2,0,0.4-0.1,0.5-0.3L34.4,31
			L34.4,31z"/>
		<path class="st0" d="M83.8,1.2c0-0.1,0-0.2-0.1-0.3c-0.3-0.1-0.3-0.1-0.2-0.4c0.2,0,0.3-0.1,0.5-0.1c0.1-0.1,0.1-0.2,0.1-0.3
			l-0.3,0.1V0l0.5,0.1c-0.2,0.2,0,0.3-0.2,0.4C84.2,0.7,83.9,0.8,84,1C84.1,1.1,84,1.2,83.8,1.2L83.8,1.2z"/>
		<path class="st0" d="M31.7,32.4l-0.2,0.1l-0.1-0.1c-0.1-0.1-0.2-0.2,0-0.3l0.3,0.1l0.1-0.5H32l-0.2,0.5c0.1,0.1,0.3,0.1,0.1,0.2
			C31.9,32.6,31.8,32.5,31.7,32.4z"/>
		<path class="st0" d="M74.2,2c0.3,0,0.5-0.1,0.8-0.1c0.1,0,0.2,0.1,0.3,0.1l0.3-0.2L75.7,2c-0.4,0.2-0.6,0-1-0.1
			C74.6,2.1,74.4,2.1,74.2,2C74.3,2.1,74.3,2,74.2,2L74.2,2z"/>
		<path class="st0" d="M124.2,8.3c0.1,0.1,0.2,0.2,0.1,0.2c-0.2,0.2-0.1,0.3,0,0.5c0,0,0,0.1-0.1,0.1L124,8.8c-0.1,0,0,0.3-0.3,0.2
			C123.7,8.7,124,8.5,124.2,8.3z"/>
		<path class="st0" d="M33.6,31.8c-0.2,0.2-0.3,0.4-0.1,0.6l-0.2,0.2l0,0c0-0.1,0-0.1,0-0.2c-0.2,0.1-0.1,0.3-0.3,0.2
			c0.1-0.1,0.1-0.3,0.2-0.4C33.2,32,33.2,31.8,33.6,31.8z"/>
		<path class="st0" d="M76.2,1.8c0.1-0.1,0.1-0.2,0.2-0.2c0.2,0,0.3-0.2,0.4-0.3c0-0.1,0.1-0.1,0.2-0.1c0,0.1,0,0.2,0,0.2
			c0.1,0.2,0.1,0.2-0.1,0.2C76.7,1.7,76.5,1.8,76.2,1.8z"/>
		<path class="st0" d="M32.7,31.2c-0.2,0.1-0.4,0.1-0.2,0.3c-0.1,0-0.1,0.1-0.2,0.1l-0.1-0.5C32.3,31.1,32.6,30.9,32.7,31.2z"/>
		<path class="st0" d="M39.1,30.7c-0.5,0-0.3,0.3-0.4,0.5c-0.2-0.2,0.1-0.4,0-0.6L39.1,30.7L39.1,30.7z"/>
		<path class="st0" d="M119.4,3.6c0.2,0.1,0.2,0.2,0.1,0.3l0,0l-0.2,0.2C119.1,3.9,119.3,3.8,119.4,3.6z"/>
		<path class="st0" d="M123,6.4c-0.2-0.2-0.1-0.4,0-0.6C123.2,6,123.2,6.1,123,6.4z"/>
		<path class="st0" d="M83.1,1.4h-0.3l-0.1-0.1l-0.2,0.1V1.2C82.8,1.1,83,1.2,83.1,1.4L83.1,1.4z"/>
		<path class="st0" d="M76.5,0.7c0.2-0.1,0.2-0.1,0.2-0.4c0.1,0,0.1,0,0.1,0.1s0,0.2,0,0.3C76.8,0.8,76.7,0.8,76.5,0.7z"/>
		<path class="st0" d="M38.2,31h-0.3c0-0.1,0.1-0.1,0.1-0.2c0.1-0.1,0.2-0.2,0.5-0.1C38.3,30.7,38.2,30.8,38.2,31z"/>
		<path class="st0" d="M30.3,32c-0.1-0.1-0.1-0.3,0-0.4h0.3C30.5,31.8,30.4,31.9,30.3,32L30.3,32z"/>
		<path class="st0" d="M76.2,0.6c0-0.2,0.2-0.3-0.1-0.5c0.1-0.1,0.2,0,0.3,0c0,0.1,0,0.3,0,0.4C76.3,0.6,76.3,0.6,76.2,0.6L76.2,0.6
			z"/>
		<path class="st0" d="M27.8,30.9l-0.2-0.3l0.4-0.1L27.8,30.9z"/>
		<path class="st0" d="M38,31.2c0,0.1,0.2,0.3,0,0.4C37.9,31.5,37.8,31.3,38,31.2z"/>
		<path class="st0" d="M37,32.4l-0.3,0.2v-0.3C36.9,32.2,36.9,32.4,37,32.4L37,32.4z"/>
		<path class="st0" d="M34.3,32.3l-0.1-0.5l0,0L34.3,32.3L34.3,32.3z"/>
		<path class="st0" d="M76.3,2c-0.3,0.1-0.4,0-0.5-0.1C76,1.9,76.1,2,76.3,2z"/>
		<path class="st0" d="M75.7,1.4l-0.1-0.1l0.2-0.1C75.9,1.2,75.7,1.3,75.7,1.4z"/>
		<path class="st0" d="M75.9,1.7L76,1.3l0.1,0.3L75.9,1.7z"/>
		<path class="st0" d="M122.3,7.8c0.4,0,0.4,0,0.2,0.3C122.5,8,122.5,7.8,122.3,7.8L122.3,7.8z"/>
		<path class="st0" d="M83,1c-0.1,0-0.3,0.1-0.4-0.1C82.7,0.9,82.9,0.9,83,1L83,1z"/>
		<path class="st0" d="M123.3,5.4l0.2,0.4C123.3,5.6,123.3,5.6,123.3,5.4z"/>
		<path class="st0" d="M32.8,30.6H33l-0.1,0.1v0.1h-0.1L32.8,30.6z"/>
		<path class="st0" d="M31.9,30.8l0.2-0.3C32.3,30.8,32.3,30.8,31.9,30.8z"/>
		<path class="st0" d="M36.1,31.7L35.9,32C35.8,31.8,35.8,31.7,36.1,31.7z"/>
		<path class="st0" d="M83.3,1.2C83.2,1.1,83.1,1,83,1l0,0c0.1,0,0.2,0,0.4,0C83.4,1.1,83.3,1.1,83.3,1.2L83.3,1.2z"/>
		<path class="st0" d="M76.2,1.2l0.3-0.3C76.5,1,76.6,1.1,76.2,1.2z"/>
		<path class="st0" d="M74.7,1.6l-0.1,0.2c-0.1-0.1-0.1-0.1-0.1-0.2C74.4,1.5,74.5,1.6,74.7,1.6z"/>
		<path class="st0" d="M123.7,8.5l0.1-0.3C123.8,8.3,123.8,8.3,123.7,8.5z"/>
		<path class="st0" d="M35.7,30.9l0.2-0.2C36,30.8,35.9,30.8,35.7,30.9L35.7,30.9z"/>
		<path class="st0" d="M35.6,30.8L35.5,31C35.4,30.9,35.5,30.8,35.6,30.8z"/>
		<path class="st0" d="M76.2,0.6c0,0.2,0,0.2-0.4,0.3C76,0.7,76.1,0.7,76.2,0.6L76.2,0.6z"/>
		<path class="st0" d="M34.4,31h0.3l-0.1,0.2C34.5,31.1,34.4,31,34.4,31L34.4,31z"/>
		<path class="st0" d="M36.4,31.2h-0.3V31L36.4,31.2z"/>
		<path class="st0" d="M35.8,32.5l-0.2,0.2C35.6,32.6,35.6,32.5,35.8,32.5z"/>
		<path class="st0" d="M75.2,1.6C75,1.5,75,1.4,75.1,1.3L75.2,1.6z"/>
		<path class="st0" d="M123.1,5.6L123.1,5.6L123.1,5.6C123.1,5.5,123.1,5.5,123.1,5.6L123.1,5.6z"/>
		<path class="st0" d="M124.2,14.7c0-0.1,0-0.1,0.2-0.1C124.4,14.6,124.3,14.6,124.2,14.7L124.2,14.7z"/>
		<path class="st0" d="M35,30.7l-0.3,0.1c0.1-0.1,0.1-0.1,0.1-0.1C34.9,30.6,34.9,30.6,35,30.7L35,30.7z"/>
		<path class="st0" d="M73.1,0.1L73.1,0.1c0.1-0.1,0.2,0,0.2,0H73.1L73.1,0.1z"/>
		<path class="st0" d="M40.3,31.9c-0.1,0-0.1,0.2-0.2,0l0,0C40.1,31.9,40.2,31.8,40.3,31.9L40.3,31.9z"/>
		<path class="st0" d="M35.4,31.4C35.4,31.4,35.4,31.5,35.4,31.4c0,0.1,0,0.1,0,0.1V31.4L35.4,31.4z"/>
		<path class="st0" d="M82.5,1.9L82.5,1.9L82.5,1.9C82.5,1.9,82.4,1.9,82.5,1.9L82.5,1.9z"/>
		<path class="st0" d="M36.3,32.5v0.2h-0.1L36.3,32.5L36.3,32.5z"/>
		<path class="st0" d="M15.3,1c-0.1,0.1,0.1,0.3-0.1,0.4C15,1.3,15,1.1,14.9,0.9c0-0.2,0-0.4,0-0.6V0.2c0.1-0.1,0.2-0.1,0.3,0l0,0
			c0.1,0.1,0.1,0.2,0.1,0.2c0.1,0.2,0.1,0.4,0.2,0.6H15.3z"/>
		<path class="st0" d="M29.1,30.9c0.3,0.2,0.6,0.4,0.6,0.7c0,0.1,0.1,0.1,0.1,0.2c-0.1,0.1-0.4,0-0.4,0.2c-0.2-0.2-0.2-0.2,0-0.4
			C29.1,31.4,29.2,31.1,29.1,30.9z"/>
		<path class="st0" d="M2,11.5c-0.1-0.2-0.1-0.5,0-0.8c0-0.1,0.1-0.1,0.2-0.2C2.4,10.8,2.3,11.1,2,11.5z"/>
		<path class="st0" d="M69.8,1c-0.1,0-0.1,0-0.2,0c-0.1-0.1-0.1-0.2-0.2-0.3c0.1-0.1,0.2-0.1,0.3-0.1C69.8,0.7,70,0.7,70,0.8
			C70.1,1,69.9,1,69.8,1L69.8,1z"/>
		<path class="st0" d="M70.8,1.8H71l-0.1-0.2c0.2,0,0.3,0,0.5,0s0.2,0.1,0.3,0.2c-0.2,0-0.3,0-0.5,0.1C71,1.9,70.9,1.8,70.8,1.8
			L70.8,1.8z"/>
		<path class="st0" d="M68.4,0.1c0.3,0.1,0.3,0.2,0.2,0.3c-0.1,0.1-0.2,0.1-0.3,0.1C68.2,0.5,68.2,0.3,68.4,0.1z"/>
		<path class="st0" d="M26.3,32.2v0.2c-0.2,0-0.4-0.1-0.6-0.3c-0.1-0.1,0-0.2,0.2-0.3C26.2,31.9,26,32.1,26.3,32.2L26.3,32.2z"/>
		<path class="st0" d="M21,32.2l0.1-0.4c0.2,0,0.3,0.1,0.4,0.2l-0.4,0.2H21z"/>
		<path class="st0" d="M68.8,2.1c-0.2,0-0.2-0.1-0.2-0.2h-0.3l0,0l0.3-0.1C68.7,1.8,68.9,1.9,68.8,2.1z"/>
		<path class="st0" d="M68.5,0.7c0.1,0,0.2-0.1,0.3-0.1c0.1,0,0.2,0,0.2,0.1v0.1c-0.1,0-0.2,0.1-0.3,0.1C68.7,0.9,68.6,0.8,68.5,0.7
			z"/>
		<path class="st0" d="M1.8,12c0,0.1,0,0.3,0,0.4c0,0-0.1,0.1-0.2,0.1l-0.1-0.1C1.6,12.2,1.7,12.1,1.8,12L1.8,12z"/>
		<path class="st0" d="M28.5,31.8c0.1,0.1,0.2,0.1,0.4,0.2c0.2,0.1,0.1,0.2,0,0.3C28.7,32.1,28.7,31.9,28.5,31.8L28.5,31.8
			L28.5,31.8z"/>
		<path class="st0" d="M21.3,31c0.3,0.1,0.3,0.1,0.4,0.3C21.4,31.4,21.4,31.2,21.3,31z"/>
		<path class="st0" d="M17.3,31.9c-0.2,0-0.3-0.2-0.4-0.3C17.2,31.6,17.3,31.7,17.3,31.9z"/>
		<path class="st0" d="M16.6,1.4c-0.2,0-0.2-0.1-0.2-0.1c0-0.1,0-0.2,0.1-0.2l0.1,0.1C16.6,1.3,16.6,1.4,16.6,1.4z"/>
		<path class="st0" d="M24.2,31.3c0.1-0.1,0.3-0.1,0.3,0s0,0.1-0.1,0.2C24.3,31.5,24.2,31.4,24.2,31.3z"/>
		<path class="st0" d="M73.4,2l-0.5-0.1l0.5-0.2V2z"/>
		<path class="st0" d="M73.9,1l-0.2-0.4C74.1,0.7,74.1,0.8,73.9,1z"/>
		<path class="st0" d="M69.2,1.3c-0.1,0-0.2,0-0.3-0.1c0,0-0.1-0.1,0-0.1s0.1,0,0.2,0C69.2,1.1,69.2,1.2,69.2,1.3L69.2,1.3z"/>
		<path class="st0" d="M7.1,2.1C7,1.9,7.1,1.8,7.2,1.7l0,0C7.4,1.9,7.4,2,7.1,2.1z"/>
		<path class="st0" d="M17.4,1.8l-0.2,0.1l-0.1-0.1l0.1-0.1L17.4,1.8z"/>
		<path class="st0" d="M14.4,31.6c-0.2,0-0.2-0.2-0.3-0.3L14.4,31.6L14.4,31.6z"/>
		<path class="st0" d="M23.5,31.7l0.4,0.1c-0.1,0.1-0.1,0.1-0.2,0.1C23.6,31.8,23.5,31.8,23.5,31.7L23.5,31.7z"/>
		<path class="st0" d="M27.1,31.3V31c0.2,0.1,0.2,0.2,0.1,0.3H27.1z"/>
		<path class="st0" d="M1.3,9.1c0,0.1,0,0.2,0,0.3c0,0-0.1,0-0.1,0.1L1.1,9.4c0-0.1,0-0.2,0.1-0.2L1.3,9.1z"/>
		<path class="st0" d="M69.9,1.8c-0.2,0.2-0.3,0.2-0.4,0C69.6,1.8,69.8,1.8,69.9,1.8z"/>
		<path class="st0" d="M72.4,1l0.2,0.2c-0.1,0.1-0.2,0-0.3,0l0,0L72.1,1H72.4L72.4,1z"/>
		<path class="st0" d="M20.7,1.1c-0.1,0-0.1,0.1-0.2,0.1l-0.1-0.1L20.5,1C20.6,1,20.7,1,20.7,1.1z"/>
		<path class="st0" d="M28.5,31.7c-0.1,0-0.2,0-0.2-0.1l0.1-0.1c0,0,0.1,0,0.1,0.1V31.7L28.5,31.7z"/>
		<path class="st0" d="M69.8,1l0.1,0.4l-0.3-0.2C69.7,1.1,69.7,1.1,69.8,1L69.8,1z"/>
		<path class="st0" d="M30,32.1l0.2,0.4C30,32.4,30,32.3,30,32.1L30,32.1z"/>
		<path class="st0" d="M26.2,31L26,31.2L25.8,31H26.2z"/>
		<path class="st0" d="M70.6,0.3c-0.1,0.3-0.1,0.3-0.3,0.1L70.6,0.3z"/>
		<path class="st0" d="M11.7,1v0.3C11.6,1.2,11.6,1.1,11.7,1L11.7,1z"/>
		<path class="st0" d="M31.4,31c0-0.1,0.1-0.1,0.1-0.1s0.1,0,0.2,0V31C31.6,31,31.5,31.1,31.4,31L31.4,31z"/>
		<path class="st0" d="M7.6,1.7V1.5C7.8,1.6,7.8,1.6,7.6,1.7L7.6,1.7z"/>
		<path class="st0" d="M26.3,32.2L26.3,32.2l-0.1-0.3c0.2,0,0.2,0.1,0.3,0.2C26.5,32.1,26.4,32.2,26.3,32.2z"/>
		<path class="st0" d="M24.8,32.6c-0.1-0.1-0.2-0.1,0-0.3l0.1,0.3H24.8z"/>
		<path class="st0" d="M67.8,2.1C67.8,2,67.8,2,68,2c0.1,0,0.2,0.1,0.1,0.2C68,2.1,67.9,2.1,67.8,2.1L67.8,2.1z"/>
		<path class="st0" d="M69,1.7l0.4,0.1C69.2,1.9,69.1,1.8,69,1.7L69,1.7z"/>
		<path class="st0" d="M72.6,1.7c-0.1,0-0.2,0-0.2-0.2L72.6,1.7L72.6,1.7z"/>
		<path class="st0" d="M25.6,31.6l-0.3-0.2C25.5,31.4,25.5,31.4,25.6,31.6z"/>
		<path class="st0" d="M70.6,1.4c-0.1,0.1-0.2,0.2-0.3,0.1l0,0C70.4,1.3,70.5,1.3,70.6,1.4z"/>
		<path class="st0" d="M69,1.4l-0.2,0.1l-0.1-0.1H69L69,1.4z"/>
		<path class="st0" d="M73.3,1.2c0.2,0,0.3,0,0.3,0.1l-0.1,0.1L73.3,1.2z"/>
		<path class="st0" d="M19.3,30.8c-0.1,0-0.1,0.1-0.2,0.1L19,30.8l0.1-0.1C19.2,30.7,19.2,30.7,19.3,30.8z"/>
		<path class="st0" d="M26.7,30.6c0.1,0.1,0,0.2-0.1,0.2C26.5,30.7,26.5,30.7,26.7,30.6z"/>
		<path class="st0" d="M9.9,2.2c0-0.2,0-0.2,0.2-0.1L9.9,2.2z"/>
		<path class="st0" d="M29.5,31l0.3-0.1C29.7,31,29.7,31,29.5,31z"/>
		<path class="st0" d="M73.5,1.7h0.3C73.7,1.7,73.6,1.8,73.5,1.7z"/>
		<path class="st0" d="M72.4,1c0.1,0,0.1-0.1,0.3,0C72.6,1.1,72.5,1.1,72.4,1L72.4,1z"/>
		<path class="st0" d="M69.5,1.4l0.2,0.2C69.5,1.5,69.5,1.5,69.5,1.4z"/>
		<path class="st0" d="M20,31.7l0.2,0.2C20,31.9,20,31.8,20,31.7z"/>
		<path class="st0" d="M30.9,31c-0.1,0-0.1-0.1-0.1-0.1l0.1-0.1C30.9,30.9,30.9,30.9,30.9,31C31,30.9,30.9,31,30.9,31z"/>
		<path class="st0" d="M29.1,31.7c-0.1,0-0.1-0.1-0.1-0.2h0.1C29.2,31.6,29.2,31.6,29.1,31.7z"/>
		<path class="st0" d="M19.5,31.7l-0.2-0.2h0.1L19.5,31.7L19.5,31.7z"/>
		<path class="st0" d="M72.1,1l0.1,0.2H72L72.1,1z"/>
		<path class="st0" d="M67.3,1.2h-0.2C67.2,1,67.3,1.1,67.3,1.2L67.3,1.2z"/>
		<path class="st0" d="M72,1.2l0.3,0.1l0,0v0.2L72,1.2z"/>
		<path class="st0" d="M28.5,31.2l-0.1,0.1c0,0-0.1,0-0.1-0.1c0,0,0-0.1,0.1-0.1S28.5,31.2,28.5,31.2z"/>
		<path class="st0" d="M68.3,1.7l-0.1-0.2l0,0c0,0,0.1,0,0.1,0.1C68.4,1.6,68.3,1.7,68.3,1.7L68.3,1.7z"/>
		<path class="st0" d="M70.6,1.1L70.4,1l0,0L70.6,1.1L70.6,1.1z"/>
		<path class="st0" d="M72.7,0.4C72.8,0.5,72.8,0.5,72.7,0.4c0.1,0.1,0,0.1,0,0.2C72.7,0.6,72.6,0.6,72.7,0.4
			C72.7,0.5,72.7,0.5,72.7,0.4z"/>
		<path class="st0" d="M21.1,32.5l0.2-0.2C21.3,32.5,21.2,32.5,21.1,32.5z"/>
		<path class="st0" d="M6.8,2.4c-0.1,0-0.1,0-0.2,0c0,0-0.1,0-0.1-0.1h0.1C6.7,2.3,6.8,2.3,6.8,2.4z"/>
		<path class="st0" d="M6.4,30.7c0,0,0-0.1-0.1-0.1c0,0,0,0,0.1,0C6.4,30.6,6.4,30.6,6.4,30.7C6.4,30.6,6.4,30.7,6.4,30.7z"/>
		<path class="st0" d="M26.4,32.5L26.4,32.5C26.4,32.6,26.4,32.6,26.4,32.5c0,0.1-0.1,0.1-0.1,0H26.4z"/>
		<path class="st0" d="M18.3,31.1L18.2,31h0.1V31.1L18.3,31.1z"/>
		<path class="st0" d="M66.5,1.8l0.1,0.1l0,0L66.5,1.8L66.5,1.8z"/>
		<path class="st0" d="M31.2,30.9C31.2,30.9,31.2,31,31.2,30.9c0.1,0.1,0,0.1,0,0.1C31.1,31,31.1,31,31.2,30.9
			C31.1,31,31.1,30.9,31.2,30.9z"/>
		<path class="st0" d="M19.6,31.2L19.4,31l0,0L19.6,31.2L19.6,31.2z"/>
		<path class="st0" d="M30.6,31.1v-0.2h0.1l0.1,0.1L30.6,31.1z"/>
		<path class="st0" d="M26.4,31.3v-0.2h0.1v0.2H26.4z"/>
		<path class="st0" d="M74.2,1.6h-0.3C74.1,1.5,74.1,1.5,74.2,1.6L74.2,1.6z"/>
		<path class="st0" d="M25.5,32.1c0-0.1-0.1-0.1-0.1-0.1h0.1C25.6,32,25.6,32,25.5,32.1C25.6,32.1,25.6,32.1,25.5,32.1z"/>
		<path class="st0" d="M19.9,31.3l0.1,0.1h-0.1V31.3L19.9,31.3z"/>
		<path class="st0" d="M73.7,1.3c0,0,0.1,0,0.1-0.1h0.1L73.7,1.3C73.8,1.4,73.8,1.4,73.7,1.3z"/>
		<path class="st0" d="M3.3,4.5L3.3,4.5C3.2,4.5,3.2,4.5,3.3,4.5C3.2,4.5,3.2,4.5,3.3,4.5C3.2,4.5,3.3,4.5,3.3,4.5z"/>
		<path class="st0" d="M68.4,1.1C68.5,1.1,68.5,1.2,68.4,1.1C68.5,1.2,68.5,1.2,68.4,1.1C68.4,1.2,68.4,1.2,68.4,1.1
			C68.4,1.2,68.4,1.1,68.4,1.1z"/>
		<path class="st0" d="M68,1.2C68,1.2,67.9,1.2,68,1.2c0-0.1,0-0.1,0-0.1S68.1,1.1,68,1.2C68.1,1.2,68,1.2,68,1.2z"/>
		<path class="st0" d="M23,1.6C23,1.5,23.1,1.5,23,1.6h0.1C23.1,1.6,23.1,1.6,23,1.6L23,1.6z"/>
		<path class="st0" d="M65.4,0.9c0.1,0,0.1,0,0.2,0V1L65.4,0.9L65.4,0.9z"/>
		<path class="st0" d="M27.4,32.2L27.4,32.2c0-0.1,0-0.1,0.1-0.1C27.4,32,27.5,32.1,27.4,32.2C27.5,32.1,27.4,32.1,27.4,32.2z"/>
		<path class="st0" d="M71,0.8C71,0.9,71,0.9,71,0.8c-0.1,0.1-0.2,0-0.2,0l0,0C70.9,0.8,71,0.8,71,0.8z"/>
		<path class="st0" d="M24.8,32.2c-0.1,0-0.1,0-0.1,0s0,0,0-0.1C24.7,32.1,24.7,32.1,24.8,32.2L24.8,32.2z"/>
		<path class="st0" d="M22.7,31.2l0.1,0.1h-0.1V31.2L22.7,31.2z"/>
		<path class="st0" d="M70.2,0.7C70.1,0.6,70.1,0.6,70.2,0.7c0-0.1,0-0.1,0-0.1C70.2,0.6,70.2,0.6,70.2,0.7
			C70.2,0.6,70.2,0.6,70.2,0.7z"/>
		<path class="st0" d="M66.7,1.7V1.6c0,0,0,0,0.1,0h0.1C66.8,1.6,66.8,1.6,66.7,1.7z"/>
		<path class="st0" d="M8.3,2.7C8.2,2.7,8.2,2.7,8.3,2.7C8.2,2.6,8.3,2.6,8.3,2.7C8.3,2.6,8.3,2.6,8.3,2.7C8.3,2.6,8.3,2.7,8.3,2.7z
			"/>
		<path class="st0" d="M69.8,0.3C69.7,0.2,69.7,0.2,69.8,0.3C69.7,0.2,69.8,0.2,69.8,0.3C69.8,0.1,69.8,0.2,69.8,0.3
			C69.8,0.2,69.8,0.2,69.8,0.3z"/>
		<path class="st0" d="M39.6,30.9h0.5L40,31.1c0.2,0.1,0.2-0.2,0.4-0.1s0.3-0.2,0.5,0c0,0.1-0.1,0.2-0.2,0.3c-0.1,0-0.2,0-0.3-0.1
			c-0.2,0.1-0.4,0.3-0.5,0.5v-0.3h-0.5C39.4,31.2,39.9,31.2,39.6,30.9z"/>
		<path class="st0" d="M98.9,32.3C98.9,32.3,98.8,32.4,98.9,32.3c-0.2-0.1-0.3-0.1-0.4,0c-0.1,0-0.2,0-0.3-0.1
			c-0.1-0.1-0.1-0.2-0.1-0.3c0.1-0.2,0.3-0.2,0.4,0C98.6,32,98.7,32.1,98.9,32.3z"/>
		<path class="st0" d="M100.9,32.6c-0.1-0.1-0.1-0.1-0.2-0.2c-0.1-0.1,0-0.3,0.1-0.3c0.1-0.1,0.2,0,0.3,0c0.1,0.1,0.2,0.2,0,0.3
			C101.1,32.5,101,32.6,100.9,32.6L100.9,32.6z"/>
		<path class="st0" d="M123.4,10.1c0.1,0.2,0.1,0.4,0.1,0.6c0,0.1,0,0.2,0.1,0.3c-0.3,0.1-0.2,0.4-0.6,0.4c0.2-0.1,0.3-0.2,0.3-0.4
			c0-0.1,0.1-0.2,0.2-0.3c0-0.1,0-0.2-0.1-0.4C123.2,10.2,123.3,10.2,123.4,10.1z"/>
		<path class="st0" d="M123.8,16.2c0-0.2,0.2-0.2,0.5-0.4c0,0.1,0,0.1,0,0.2s-0.1,0.3-0.1,0.4s-0.1,0.1-0.2,0.1
			C123.8,16.5,124.1,16.3,123.8,16.2z"/>
		<path class="st0" d="M124.3,21.6l-0.1,0.5l-0.5-0.1C123.8,21.7,124.1,21.8,124.3,21.6z"/>
		<path class="st0" d="M124,9.7c0.1,0.1,0.3,0.3,0.4,0.4v0.1c-0.1,0-0.1,0-0.2,0c-0.1-0.1-0.2-0.2-0.3-0.3
			C123.8,9.9,123.9,9.8,124,9.7L124,9.7z"/>
		<path class="st0" d="M95.9,32c-0.1,0-0.2-0.1-0.2-0.2s0.2-0.2,0.3-0.2c0.1,0,0.2,0.1,0.2,0.2C96.1,32,96,32,95.9,32L95.9,32z"/>
		<path class="st0" d="M75.2,31.4c-0.2-0.3-0.2-0.5,0-0.6C75.3,31,75.3,31.2,75.2,31.4z"/>
		<path class="st0" d="M101.8,31c-0.1,0.1-0.2,0.1-0.3,0.2l-0.2-0.1c0-0.1,0.1-0.2,0.3-0.2C101.6,30.9,101.7,30.9,101.8,31z"/>
		<path class="st0" d="M98.7,30.9c0-0.2,0.1-0.2,0.2-0.2s0.2,0,0.2,0.1S99,31,98.9,30.9C98.8,30.9,98.8,30.9,98.7,30.9z"/>
		<path class="st0" d="M122.3,18.9c-0.1-0.2,0-0.5,0.2-0.6C122.5,18.5,122.4,18.7,122.3,18.9z"/>
		<path class="st0" d="M122.9,12l0.3-0.4C123.4,11.8,123.3,11.9,122.9,12z"/>
		<path class="st0" d="M123.8,12c0.1,0.1,0.3,0.2,0.4,0.3v0.1C123.9,12.4,123.8,12.2,123.8,12L123.8,12z"/>
		<path class="st0" d="M100.6,30.6c0.1,0.1,0.2,0.1,0.2,0.1c0,0.1-0.1,0.1-0.2,0.1s-0.1-0.1-0.1-0.1S100.6,30.7,100.6,30.6z"/>
		<path class="st0" d="M123.8,13.8c0.3,0.2,0.3,0.2,0.1,0.5L123.8,13.8z"/>
		<path class="st0" d="M122.9,13.5c0.2,0.1,0.4,0.1,0.5,0.3L122.9,13.5L122.9,13.5z"/>
		<path class="st0" d="M124,18.4l-0.1-0.2c0.1,0,0.1,0,0.1,0c0.1,0.1,0.1,0.1,0.2,0.2H124z"/>
		<path class="st0" d="M122.6,19.2c0.2-0.1,0.4-0.2,0.6-0.1C123,19.2,122.8,19.2,122.6,19.2z"/>
		<path class="st0" d="M100.1,31.8l0.3,0.1C100.2,32,100.2,32,100.1,31.8z"/>
		<path class="st0" d="M122.6,27.3l0.1-0.3h0.1v0.1C122.8,27.2,122.8,27.2,122.6,27.3z"/>
		<path class="st0" d="M38.9,32.4l0.2-0.1c0,0.2,0,0.2-0.2,0.3V32.4L38.9,32.4z"/>
		<path class="st0" d="M94.6,31.7c0.1,0.1,0.1,0.1,0.2,0.2L94.7,32c-0.1,0-0.1-0.1-0.2-0.1C94.5,31.8,94.5,31.8,94.6,31.7z"/>
		<path class="st0" d="M122.5,12.4c0-0.1-0.2-0.2,0-0.4C122.6,12.2,122.6,12.3,122.5,12.4z"/>
		<path class="st0" d="M123.1,21.6l0.2-0.4h0.1L123.1,21.6L123.1,21.6z"/>
		<path class="st0" d="M122.2,19.1c-0.1,0.2,0,0.3-0.2,0.4C122,19.3,122,19.2,122.2,19.1z"/>
		<path class="st0" d="M40.3,31.9c-0.1-0.1-0.2,0-0.2,0c0-0.1,0.1-0.1,0.1-0.2c0.1,0,0.1-0.1,0.2-0.1C40.5,31.8,40.4,31.9,40.3,31.9
			z"/>
		<path class="st0" d="M122.2,24.8l-0.1,0.4H122L122.2,24.8L122.2,24.8z"/>
		<path class="st0" d="M38.9,32l0.4,0.1l-0.1,0.1C39,32.2,38.9,32.1,38.9,32L38.9,32z"/>
		<path class="st0" d="M98,31.3l-0.1,0.1l-0.1-0.1l0.1-0.1C97.9,31.2,98,31.2,98,31.3z"/>
		<path class="st0" d="M122.2,21.3L122.2,21.3c0.1,0.1,0.1,0.2-0.1,0.2H122C122,21.4,122,21.3,122.2,21.3z"/>
		<path class="st0" d="M104.8,31.1c0-0.1-0.1-0.1-0.1-0.1l0.1-0.1l0.1,0.1C104.9,31,104.9,31,104.8,31.1z"/>
		<path class="st0" d="M122.5,14.3V14C122.6,14.1,122.6,14.1,122.5,14.3z"/>
		<path class="st0" d="M42,31.4h-0.2l0,0l0.3-0.2L42,31.4L42,31.4z"/>
		<path class="st0" d="M124.1,24.5c-0.1,0.2-0.1,0.2-0.3,0H124.1z"/>
		<path class="st0" d="M113.3,32.5l-0.2,0.1l-0.1-0.1l0.1-0.1C113.2,32.5,113.2,32.5,113.3,32.5z"/>
		<path class="st0" d="M118.1,31.5c-0.1-0.1,0-0.3,0.1-0.4C118.3,31.3,118.1,31.4,118.1,31.5L118.1,31.5z"/>
		<path class="st0" d="M44.1,31.8l0.2-0.2h0.1L44.1,31.8L44.1,31.8z"/>
		<path class="st0" d="M122,13.6v-0.3h0.1L122,13.6L122,13.6z"/>
		<path class="st0" d="M42.3,31.8h0.2L42.3,32h-0.1L42.3,31.8z"/>
		<path class="st0" d="M92.3,30.9c-0.1,0-0.1,0-0.2,0c0,0-0.1,0-0.1-0.1c0,0,0-0.1,0.1-0.1L92.3,30.9z"/>
		<path class="st0" d="M41.8,31.9c0,0.1,0,0.2-0.2,0.2C41.5,32,41.7,31.9,41.8,31.9z"/>
		<path class="st0" d="M122.8,14.7v-0.3C122.9,14.4,122.9,14.4,122.8,14.7z"/>
		<path class="st0" d="M123.6,23.9c0.1,0,0.1,0,0.2,0V24L123.6,23.9L123.6,23.9z"/>
		<path class="st0" d="M121.8,14.1l0.1-0.3h0.1v0.3H121.8z"/>
		<path class="st0" d="M102,32.5L102,32.5h-0.2H102L102,32.5z"/>
		<path class="st0" d="M102.4,30.8c0,0.1-0.1,0.2-0.3,0.1L102.4,30.8z"/>
		<path class="st0" d="M93.9,32.4C93.8,32.4,93.8,32.5,93.9,32.4c-0.1,0.1-0.2,0.1-0.2,0C93.7,32.4,93.7,32.3,93.9,32.4
			C93.8,32.4,93.8,32.4,93.9,32.4z"/>
		<path class="st0" d="M120.3,27.5v0.2h-0.1L120.3,27.5L120.3,27.5z"/>
		<path class="st0" d="M123.9,20.5C123.8,20.5,123.8,20.5,123.9,20.5c-0.1,0-0.2,0-0.2-0.1h0.1C123.8,20.4,123.8,20.5,123.9,20.5z"
			/>
		<path class="st0" d="M46.9,31.5l0.2-0.2C47.1,31.5,47.1,31.5,46.9,31.5z"/>
		<path class="st0" d="M44.4,32.2l-0.2,0.1C44.1,32.2,44.2,32.1,44.4,32.2L44.4,32.2z"/>
		<path class="st0" d="M123.6,11.2l0.1,0.2h-0.1V11.2L123.6,11.2z"/>
		<path class="st0" d="M85.2,31.1L85.2,31.1H85C85.1,31.1,85.1,31.1,85.2,31.1L85.2,31.1z"/>
		<path class="st0" d="M43.9,32.5h0.3C44.1,32.7,44,32.6,43.9,32.5z"/>
		<path class="st0" d="M101.7,31.4v-0.1h0.1L101.7,31.4L101.7,31.4z"/>
		<path class="st0" d="M42,31.4l0.1,0.1l-0.3,0.1C41.9,31.5,42,31.5,42,31.4L42,31.4z"/>
		<path class="st0" d="M93.3,31.8c0,0.1,0.1,0.1,0.1,0.1L93.3,32C93.3,31.9,93.2,31.9,93.3,31.8C93.2,31.8,93.3,31.8,93.3,31.8z"/>
		<path class="st0" d="M37.1,31.9c0.1,0,0.2,0,0.2,0.2L37.1,31.9L37.1,31.9z"/>
		<path class="st0" d="M101.4,31.7C101.3,31.6,101.3,31.6,101.4,31.7c-0.1-0.1-0.1-0.1,0-0.2c0,0,0.1,0,0.1,0.1
			S101.4,31.6,101.4,31.7z"/>
		<path class="st0" d="M120.5,28l-0.1,0.3C120.3,28.1,120.3,28.1,120.5,28z"/>
		<path class="st0" d="M123.4,15.2l-0.2,0.2C123.1,15.3,123.1,15.3,123.4,15.2z"/>
		<path class="st0" d="M123.9,23.6h0.2v0.1L123.9,23.6L123.9,23.6z"/>
		<path class="st0" d="M41.8,30.8l0.2,0.1C41.8,31,41.8,31,41.8,30.8L41.8,30.8z"/>
		<path class="st0" d="M123.8,23.2C123.7,23.2,123.7,23.2,123.8,23.2c-0.1,0-0.2,0-0.2-0.1h0.1C123.7,23.1,123.7,23.1,123.8,23.2z"
			/>
		<path class="st0" d="M102.7,31L102.7,31v0.1C102.7,31.1,102.6,31.1,102.7,31C102.6,31,102.6,31,102.7,31z"/>
		<path class="st0" d="M96.7,31.2L96.7,31.2c-0.1,0-0.1,0-0.2-0.1C96.5,31.2,96.5,31.2,96.7,31.2C96.6,31.2,96.6,31.2,96.7,31.2z"/>
		<path class="st0" d="M123,14.1l-0.2-0.1C122.9,13.9,122.9,13.9,123,14.1z"/>
		<path class="st0" d="M123.8,12.7L123.8,12.7L123.8,12.7C123.8,12.8,123.8,12.8,123.8,12.7L123.8,12.7z"/>
		<path class="st0" d="M44.5,31.9L44.3,32l-0.1-0.1c0,0,0,0,0.1,0C44.3,31.9,44.4,31.9,44.5,31.9z"/>
		<path class="st0" d="M105.4,32.1L105.4,32.1C105.5,32.1,105.4,32.1,105.4,32.1L105.4,32.1L105.4,32.1z"/>
		<path class="st0" d="M38.9,32.4c-0.1,0-0.2,0-0.2-0.1C38.8,32.3,38.9,32.4,38.9,32.4L38.9,32.4z"/>
		<path class="st0" d="M92.5,32.5L92.5,32.5C92.4,32.5,92.4,32.5,92.5,32.5C92.4,32.4,92.4,32.4,92.5,32.5
			C92.5,32.4,92.5,32.4,92.5,32.5z"/>
		<path class="st0" d="M124,24.3C123.9,24.3,123.9,24.3,124,24.3C123.9,24.3,123.9,24.3,124,24.3C123.8,24.3,123.8,24.3,124,24.3
			C123.9,24.3,123.9,24.3,124,24.3z"/>
		<path class="st0" d="M93.9,1.9c-0.2-0.2-0.2-0.4-0.2-0.6c0-0.1,0-0.3,0-0.4c0-0.2,0.1-0.3,0.2-0.3c0.2,0,0.4,0,0.6,0.2l-0.4,0.1
			c0,0.2,0,0.5,0.2,0.7l-0.3,0L93.9,1.9L93.9,1.9z"/>
		<path class="st0" d="M90.5,0.4c0.2,0.1,0.2,0.3,0.1,0.4c0,0-0.1,0.1-0.1,0l-0.1-0.1C90.4,0.7,90.5,0.5,90.5,0.4z"/>
		<path class="st0" d="M95,0.5l0.1,0.6c-0.1,0-0.1,0-0.2,0c-0.1-0.1-0.1-0.4,0-0.5L95,0.5z"/>
		<path class="st0" d="M95.3,2c-0.1,0-0.1-0.1-0.1-0.1c0-0.1,0-0.1,0-0.2h0.1c0,0.1,0.1,0.1,0.1,0.2C95.4,1.9,95.4,1.9,95.3,2
			L95.3,2z"/>
		<path class="st0" d="M116.3,1.4c0.1,0.2,0,0.3-0.2,0.4C116,1.6,116,1.6,116.3,1.4z"/>
		<path class="st0" d="M99.3,1.7l-0.1-0.1l0.1-0.1l0.1,0.1C99.4,1.6,99.4,1.6,99.3,1.7z"/>
		<path class="st0" d="M89.1,0.3c0.2-0.1,0.3,0,0.4,0.1C89.4,0.5,89.2,0.4,89.1,0.3z"/>
		<path class="st0" d="M90.5,1.5v0.3C90.3,1.7,90.3,1.6,90.5,1.5z"/>
		<path class="st0" d="M102.1,0.2c-0.1,0.1-0.2,0.1-0.3,0V0.1C101.9,0.1,102,0.1,102.1,0.2z"/>
		<path class="st0" d="M89.7,1.6c-0.2,0-0.2-0.1-0.1-0.2h0.1C89.8,1.4,89.8,1.5,89.7,1.6z"/>
		<path class="st0" d="M97.9,0.6h-0.2V0.5C97.7,0.5,97.8,0.5,97.9,0.6L97.9,0.6z"/>
		<path class="st0" d="M91.4,1c0,0-0.1,0.1-0.2,0.1c0,0-0.1,0-0.1-0.1l0.1-0.1C91.3,1,91.3,1,91.4,1z"/>
		<path class="st0" d="M88.7,1.5c-0.1,0-0.1-0.1-0.2-0.1l0,0L88.7,1.5L88.7,1.5z"/>
		<path class="st0" d="M91.5,0.2h-0.2V0.1L91.5,0.2L91.5,0.2z"/>
		<path class="st0" d="M121.6,4.5l0.2-0.1l0.2,0.2c-0.1,0.2-0.2,0.3-0.2,0.5s-0.1,0.3-0.1,0.5c-0.3-0.1-0.1-0.3-0.3-0.4l-0.1,0.2
			l0,0c0-0.1,0-0.2,0-0.3c0-0.1,0.1-0.1,0.1-0.1c0.2-0.1,0.2-0.2,0.2-0.2C121.4,4.7,121.5,4.6,121.6,4.5L121.6,4.5z"/>
		<path class="st0" d="M122,6.9c-0.2,0-0.3-0.1-0.2-0.2c0.1-0.2,0.2-0.5,0.2-0.7C122.3,6.2,122.3,6.2,122,6.9z"/>
		<path class="st0" d="M121.5,3.8c0,0.3,0,0.5,0,0.8l0,0c-0.1,0-0.1,0-0.1,0c-0.2-0.2-0.1-0.5,0-0.6C121.5,3.8,121.5,3.8,121.5,3.8
			L121.5,3.8L121.5,3.8z"/>
		<path class="st0" d="M121.1,4.7c0.1,0.2,0,0.4-0.2,0.5c0,0,0,0-0.1,0L121.1,4.7z"/>
		<path class="st0" d="M122.3,7.5c-0.1-0.3,0-0.3,0.3-0.4L122.3,7.5z"/>
		<path class="st0" d="M121.5,3.8c0.1,0,0.3,0,0.3,0.1s0,0.2-0.1,0.3C121.6,4,121.6,3.9,121.5,3.8L121.5,3.8z"/>
		<path class="st0" d="M121.3,6.9L121.3,6.9c0.3,0,0.3,0,0.3,0.1L121.3,6.9z"/>
		<path class="st0" d="M122.2,7c-0.1-0.1-0.1-0.2,0.1-0.3L122.2,7L122.2,7z"/>
		<path class="st0" d="M122.2,7.7L122,7.9C122,7.7,122,7.7,122.2,7.7z"/>
		<path class="st0" d="M122.7,4.9l-0.2,0.2C122.5,5,122.5,5,122.7,4.9z"/>
		<path class="st0" d="M121.9,4.1V3.8C122,3.9,122,4,121.9,4.1z"/>
		<path class="st0" d="M122.7,4.5l-0.2,0.2C122.4,4.6,122.6,4.6,122.7,4.5L122.7,4.5z"/>
		<path class="st0" d="M121.7,8.3l0.2-0.2c0,0,0,0,0,0.1C121.9,8.3,121.9,8.4,121.7,8.3z"/>
		<path class="st0" d="M121.8,8c0,0,0,0.1-0.1,0.1h-0.1C121.7,8.1,121.7,8,121.8,8L121.8,8z"/>
		<path class="st0" d="M118.9,3.6L118.9,3.6c0-0.2,0-0.4,0-0.5c0,0,0.1-0.1,0.1-0.2h0.1c0,0.1,0.1,0.1,0.1,0.2
			C119.1,3.3,119,3.4,118.9,3.6L118.9,3.6z"/>
		<path class="st0" d="M117.7,1.8l0.1-0.2h0.1L117.7,1.8L117.7,1.8z"/>
		<path class="st0" d="M84.7,2c-0.1-0.1,0.1-0.2,0.2-0.2C84.9,2,84.9,2,84.7,2L84.7,2z"/>
		<path class="st0" d="M83.1,2h0.3C83.2,2.2,83.2,2.2,83.1,2L83.1,2z"/>
		<path class="st0" d="M86.8,1.4c0,0.1,0.1,0.1,0,0.1S86.6,1.5,86.8,1.4C86.7,1.3,86.8,1.4,86.8,1.4L86.8,1.4z"/>
		<path class="st0" d="M86.9,0.4L86.9,0.4L86.9,0.4L86.9,0.4L86.9,0.4z"/>
		<path class="st0" d="M86.8,1.4L87,1.2C87.1,1.4,87.1,1.4,86.8,1.4L86.8,1.4z"/>
		<text transform="matrix(1 0 0 1 16.532 20.7957)" class="st0 st1 st2">Gilt fr v7 &amp; v8 </text>
	</g>
</g>
</svg>
